<svg width="393" height="852" viewBox="0 0 393 852" fill="none" xmlns="http://www.w3.org/2000/svg">
<g clip-path="url(#clip0_12_26)">
<rect width="393" height="852" fill="#232736"/>
<rect x="40" y="379" width="313" height="59" rx="10" fill="#354252"/>
<path d="M282.523 415.76C282.187 415.76 281.823 415.696 281.431 415.568C281.039 415.448 280.667 415.252 280.315 414.98L280.759 414.14C281.015 414.244 281.283 414.336 281.563 414.416C281.851 414.496 282.107 414.536 282.331 414.536C282.811 414.536 283.231 414.428 283.591 414.212C283.951 413.996 284.231 413.7 284.431 413.324C284.639 412.948 284.743 412.516 284.743 412.028C284.743 411.812 284.699 411.58 284.611 411.332C284.523 411.076 284.367 410.772 284.143 410.42C283.927 410.068 283.619 409.648 283.219 409.16L284.107 408.044C284.531 408.612 284.871 409.116 285.127 409.556C285.383 409.996 285.571 410.412 285.691 410.804C285.811 411.196 285.871 411.604 285.871 412.028C285.871 412.364 285.827 412.708 285.739 413.06C285.659 413.412 285.531 413.748 285.355 414.068C285.179 414.388 284.955 414.676 284.683 414.932C284.419 415.188 284.107 415.388 283.747 415.532C283.387 415.684 282.979 415.76 282.523 415.76ZM289.728 408.344C290.088 408.344 290.416 408.428 290.712 408.596C291.008 408.764 291.26 409.004 291.468 409.316C291.676 409.628 291.836 410.004 291.948 410.444C292.068 410.884 292.128 411.376 292.128 411.92C292.128 412.256 292.084 412.604 291.996 412.964C291.916 413.324 291.788 413.668 291.612 413.996C291.444 414.332 291.228 414.632 290.964 414.896C290.7 415.16 290.388 415.368 290.028 415.52C289.668 415.68 289.26 415.76 288.804 415.76C288.468 415.76 288.104 415.696 287.712 415.568C287.32 415.448 286.948 415.252 286.596 414.98L287.04 414.14C287.296 414.244 287.564 414.336 287.844 414.416C288.132 414.496 288.388 414.536 288.612 414.536C289.004 414.536 289.356 414.464 289.668 414.32C289.988 414.176 290.256 413.972 290.472 413.708C290.688 413.444 290.84 413.136 290.928 412.784C290.72 412.848 290.504 412.9 290.28 412.94C290.064 412.972 289.852 412.988 289.644 412.988C289.236 412.988 288.884 412.94 288.588 412.844C288.3 412.74 288.06 412.604 287.868 412.436C287.684 412.26 287.548 412.06 287.46 411.836C287.372 411.612 287.328 411.372 287.328 411.116C287.328 410.7 287.396 410.324 287.532 409.988C287.668 409.644 287.848 409.352 288.072 409.112C288.304 408.864 288.56 408.676 288.84 408.548C289.128 408.412 289.424 408.344 289.728 408.344ZM288.468 410.876C288.468 411.052 288.508 411.208 288.588 411.344C288.676 411.472 288.816 411.576 289.008 411.656C289.2 411.728 289.464 411.764 289.8 411.764C290 411.764 290.2 411.748 290.4 411.716C290.6 411.684 290.8 411.632 291 411.56C290.968 411.216 290.896 410.896 290.784 410.6C290.672 410.296 290.52 410.048 290.328 409.856C290.144 409.664 289.92 409.568 289.656 409.568C289.424 409.568 289.216 409.636 289.032 409.772C288.856 409.9 288.716 410.064 288.612 410.264C288.516 410.464 288.468 410.668 288.468 410.876ZM294.219 415.76C293.883 415.76 293.519 415.696 293.127 415.568C292.735 415.448 292.363 415.252 292.011 414.98L292.455 414.14C292.711 414.244 292.979 414.336 293.259 414.416C293.547 414.496 293.803 414.536 294.027 414.536C294.507 414.536 294.927 414.428 295.287 414.212C295.647 413.996 295.927 413.7 296.127 413.324C296.335 412.948 296.439 412.516 296.439 412.028C296.439 411.844 296.415 411.684 296.367 411.548C296.319 411.412 296.255 411.276 296.175 411.14C296.095 411.004 296.003 410.856 295.899 410.696L297.567 411.596C297.567 411.668 297.567 411.74 297.567 411.812C297.567 411.884 297.567 411.956 297.567 412.028C297.567 412.364 297.519 412.708 297.423 413.06C297.335 413.412 297.203 413.748 297.027 414.068C296.851 414.388 296.627 414.676 296.355 414.932C296.091 415.188 295.779 415.388 295.419 415.532C295.067 415.684 294.667 415.76 294.219 415.76ZM298.791 413C298.519 413 298.271 412.972 298.047 412.916C297.831 412.852 297.627 412.76 297.435 412.64C297.243 412.512 297.059 412.348 296.883 412.148C296.715 411.948 296.543 411.708 296.367 411.428L294.915 409.16L295.803 408.044L297.423 410.78C297.575 411.028 297.711 411.228 297.831 411.38C297.951 411.524 298.083 411.628 298.227 411.692C298.379 411.748 298.567 411.776 298.791 411.776H298.911V413H298.791ZM298.912 413V411.776H298.984C299.128 411.776 299.252 411.756 299.356 411.716C299.468 411.676 299.572 411.604 299.668 411.5C299.764 411.396 299.872 411.252 299.992 411.068C300.112 410.876 300.26 410.632 300.436 410.336C300.676 409.928 300.908 409.584 301.132 409.304C301.356 409.016 301.572 408.788 301.78 408.62C301.996 408.452 302.208 408.332 302.416 408.26C302.632 408.18 302.848 408.14 303.064 408.14C303.376 408.14 303.656 408.212 303.904 408.356C304.152 408.5 304.384 408.744 304.6 409.088C304.816 409.432 305.032 409.908 305.248 410.516C305.392 410.908 305.524 411.196 305.644 411.38C305.764 411.556 305.892 411.668 306.028 411.716C306.172 411.756 306.352 411.776 306.568 411.776H306.592V413H306.568C306.208 413 305.9 412.96 305.644 412.88C305.388 412.792 305.164 412.664 304.972 412.496C304.788 412.32 304.628 412.108 304.492 411.86C304.356 411.612 304.232 411.324 304.12 410.996C303.96 410.524 303.816 410.176 303.688 409.952C303.568 409.72 303.452 409.568 303.34 409.496C303.228 409.424 303.104 409.388 302.968 409.388C302.84 409.388 302.7 409.436 302.548 409.532C302.404 409.62 302.244 409.768 302.068 409.976C301.892 410.184 301.7 410.468 301.492 410.828C301.284 411.188 301.096 411.496 300.928 411.752C300.768 412 300.616 412.208 300.472 412.376C300.336 412.536 300.196 412.664 300.052 412.76C299.908 412.848 299.748 412.912 299.572 412.952C299.404 412.984 299.208 413 298.984 413H298.912ZM305.332 412.436C305.108 412.724 304.84 412.924 304.528 413.036C304.224 413.156 303.896 413.208 303.544 413.192C303.192 413.176 302.836 413.104 302.476 412.976C302.124 412.84 301.784 412.664 301.456 412.448C301.136 412.224 300.848 411.976 300.592 411.704L301.264 410.936C301.48 411.112 301.72 411.276 301.984 411.428C302.256 411.572 302.54 411.688 302.836 411.776C303.14 411.864 303.452 411.912 303.772 411.92C304.1 411.928 304.428 411.88 304.756 411.776L305.332 412.436ZM298.912 411.776H299.032V413H298.912C298.672 413 298.552 412.788 298.552 412.364C298.552 411.972 298.672 411.776 298.912 411.776ZM306.588 413V411.776H308.088V404.12H309.336V413H306.588ZM306.588 411.776H306.708V413H306.588C306.348 413 306.228 412.788 306.228 412.364C306.228 411.972 306.348 411.776 306.588 411.776ZM311.251 404.12H312.499V413H311.251V404.12ZM319.77 412.46C319.29 412.46 318.854 412.388 318.462 412.244C318.07 412.1 317.758 411.896 317.526 411.632C317.294 411.36 317.178 411.036 317.178 410.66C317.178 410.308 317.254 410 317.406 409.736C317.566 409.464 317.81 409.212 318.138 408.98C318.474 408.748 318.898 408.512 319.41 408.272C319.922 408.032 320.534 407.764 321.246 407.468L321.474 408.764C320.826 409.004 320.302 409.212 319.902 409.388C319.502 409.564 319.194 409.724 318.978 409.868C318.762 410.004 318.614 410.132 318.534 410.252C318.462 410.364 318.426 410.48 318.426 410.6C318.426 410.816 318.538 410.98 318.762 411.092C318.986 411.204 319.322 411.26 319.77 411.26C319.906 411.26 320.05 411.256 320.202 411.248C320.362 411.232 320.53 411.208 320.706 411.176C320.882 411.136 321.07 411.088 321.27 411.032L321.546 412.136C321.25 412.264 320.966 412.352 320.694 412.4C320.43 412.44 320.122 412.46 319.77 412.46ZM322.83 413C322.414 413 322.07 412.948 321.798 412.844C321.534 412.74 321.326 412.6 321.174 412.424C321.022 412.24 320.914 412.028 320.85 411.788C320.794 411.548 320.766 411.296 320.766 411.032V406.7H322.014V410.72C322.014 411.088 322.078 411.356 322.206 411.524C322.334 411.692 322.622 411.776 323.07 411.776H323.526V413H322.83ZM318.882 406.016L317.91 405.032L318.834 404.048L319.806 405.032L318.882 406.016ZM320.946 406.016L319.974 405.032L320.898 404.048L321.87 405.032L320.946 406.016ZM323.521 413V411.776H323.593C323.737 411.776 323.861 411.756 323.965 411.716C324.077 411.676 324.181 411.604 324.277 411.5C324.373 411.396 324.481 411.252 324.601 411.068C324.721 410.876 324.869 410.632 325.045 410.336C325.285 409.928 325.517 409.584 325.741 409.304C325.965 409.016 326.181 408.788 326.389 408.62C326.605 408.452 326.817 408.332 327.025 408.26C327.241 408.18 327.457 408.14 327.673 408.14C327.985 408.14 328.265 408.212 328.513 408.356C328.761 408.5 328.993 408.744 329.209 409.088C329.425 409.432 329.641 409.908 329.857 410.516C330.001 410.908 330.133 411.196 330.253 411.38C330.373 411.556 330.501 411.668 330.637 411.716C330.781 411.756 330.961 411.776 331.177 411.776H331.201V413H331.177C330.817 413 330.509 412.96 330.253 412.88C329.997 412.792 329.773 412.664 329.581 412.496C329.397 412.32 329.237 412.108 329.101 411.86C328.965 411.612 328.841 411.324 328.729 410.996C328.569 410.524 328.425 410.176 328.297 409.952C328.177 409.72 328.061 409.568 327.949 409.496C327.837 409.424 327.713 409.388 327.577 409.388C327.449 409.388 327.309 409.436 327.157 409.532C327.013 409.62 326.853 409.768 326.677 409.976C326.501 410.184 326.309 410.468 326.101 410.828C325.893 411.188 325.705 411.496 325.537 411.752C325.377 412 325.225 412.208 325.081 412.376C324.945 412.536 324.805 412.664 324.661 412.76C324.517 412.848 324.357 412.912 324.181 412.952C324.013 412.984 323.817 413 323.593 413H323.521ZM329.941 412.436C329.717 412.724 329.449 412.924 329.137 413.036C328.833 413.156 328.505 413.208 328.153 413.192C327.801 413.176 327.445 413.104 327.085 412.976C326.733 412.84 326.393 412.664 326.065 412.448C325.745 412.224 325.457 411.976 325.201 411.704L325.873 410.936C326.089 411.112 326.329 411.276 326.593 411.428C326.865 411.572 327.149 411.688 327.445 411.776C327.749 411.864 328.061 411.912 328.381 411.92C328.709 411.928 329.037 411.88 329.365 411.776L329.941 412.436ZM323.521 411.776H323.641V413H323.521C323.281 413 323.161 412.788 323.161 412.364C323.161 411.972 323.281 411.776 323.521 411.776ZM333.585 411.776H335.025V413H333.585V411.776ZM331.197 413V411.776H332.697V404.12H333.945V413H331.197ZM331.197 411.776H331.317V413H331.197C330.957 413 330.837 412.788 330.837 412.364C330.837 411.972 330.957 411.776 331.197 411.776ZM335.809 407.024L339.397 404.048L340.189 404.984L336.505 408.044L336.649 407.432C337.673 407.728 338.457 408.14 339.001 408.668C339.553 409.196 339.913 409.824 340.081 410.552C340.257 411.28 340.285 412.096 340.165 413H335.029V411.776H339.109C339.069 411.256 338.949 410.784 338.749 410.36C338.557 409.928 338.229 409.552 337.765 409.232C337.309 408.904 336.657 408.632 335.809 408.416V407.024ZM335.029 411.776H335.149V413H335.029C334.789 413 334.669 412.788 334.669 412.364C334.669 411.972 334.789 411.776 335.029 411.776Z" fill="white"/>
<rect x="40" y="298" width="313" height="59" rx="10" fill="#354252"/>
<path d="M257.73 334L257.169 332.606L260.807 328.509C261 328.305 261.198 328.073 261.402 327.812C261.618 327.54 261.822 327.262 262.014 326.979C262.207 326.696 262.36 326.418 262.473 326.146C262.598 325.863 262.66 325.596 262.66 325.347C262.66 324.984 262.587 324.678 262.439 324.429C262.303 324.168 262.099 323.97 261.827 323.834C261.567 323.698 261.249 323.63 260.875 323.63C260.547 323.63 260.224 323.726 259.906 323.919C259.589 324.112 259.3 324.384 259.039 324.735C258.779 325.086 258.575 325.494 258.427 325.959L257.016 325.075C257.209 324.418 257.498 323.857 257.883 323.392C258.28 322.916 258.75 322.553 259.294 322.304C259.85 322.055 260.45 321.93 261.096 321.93C261.765 321.93 262.36 322.072 262.881 322.355C263.403 322.627 263.811 323.012 264.105 323.511C264.4 323.998 264.547 324.565 264.547 325.211C264.547 325.54 264.502 325.88 264.411 326.231C264.321 326.571 264.173 326.928 263.969 327.302C263.777 327.676 263.527 328.073 263.221 328.492C262.915 328.9 262.547 329.336 262.116 329.801L259.413 332.742L259.073 332.232H264.921V334H257.73ZM270.614 334.17C269.707 334.17 268.925 333.921 268.268 333.422C267.622 332.923 267.123 332.221 266.772 331.314C266.421 330.396 266.245 329.308 266.245 328.05C266.245 326.792 266.421 325.71 266.772 324.803C267.123 323.885 267.622 323.177 268.268 322.678C268.925 322.179 269.707 321.93 270.614 321.93C271.521 321.93 272.303 322.179 272.96 322.678C273.617 323.177 274.122 323.885 274.473 324.803C274.824 325.71 275 326.792 275 328.05C275 329.308 274.824 330.396 274.473 331.314C274.122 332.221 273.617 332.923 272.96 333.422C272.303 333.921 271.521 334.17 270.614 334.17ZM270.614 332.504C271.441 332.504 272.082 332.119 272.535 331.348C272.988 330.566 273.215 329.467 273.215 328.05C273.215 326.633 272.988 325.54 272.535 324.769C272.082 323.987 271.441 323.596 270.614 323.596C269.787 323.596 269.146 323.987 268.693 324.769C268.24 325.54 268.013 326.633 268.013 328.05C268.013 329.467 268.24 330.566 268.693 331.348C269.146 332.119 269.787 332.504 270.614 332.504ZM279.478 333.167V323.511L280.107 323.987L277.761 325.228L277.268 323.63L280.447 321.93H281.331V333.167H279.478ZM277.591 334V332.232H283.269V334H277.591ZM288.165 334L288.097 333.83L291.633 326.316L291.684 327.727C291.423 328.169 291.117 328.554 290.766 328.883C290.415 329.2 290.035 329.444 289.627 329.614C289.219 329.784 288.805 329.869 288.386 329.869C287.74 329.869 287.145 329.699 286.601 329.359C286.057 329.019 285.621 328.566 285.292 327.999C284.963 327.432 284.799 326.815 284.799 326.146C284.799 325.341 284.98 324.622 285.343 323.987C285.706 323.341 286.199 322.831 286.822 322.457C287.457 322.083 288.165 321.896 288.947 321.896C289.514 321.896 290.046 321.998 290.545 322.202C291.044 322.406 291.48 322.695 291.854 323.069C292.228 323.432 292.523 323.857 292.738 324.344C292.953 324.82 293.061 325.33 293.061 325.874C293.061 326.157 293.033 326.463 292.976 326.792C292.919 327.109 292.823 327.472 292.687 327.88C292.562 328.277 292.392 328.736 292.177 329.257C291.962 329.767 291.695 330.362 291.378 331.042L289.967 334H288.165ZM288.777 328.169C289.219 328.169 289.616 328.073 289.967 327.88C290.318 327.676 290.59 327.41 290.783 327.081C290.987 326.741 291.089 326.361 291.089 325.942C291.089 325.5 290.993 325.103 290.8 324.752C290.607 324.389 290.335 324.106 289.984 323.902C289.644 323.698 289.253 323.596 288.811 323.596C288.403 323.596 288.04 323.698 287.723 323.902C287.406 324.095 287.151 324.367 286.958 324.718C286.777 325.058 286.686 325.46 286.686 325.925C286.686 326.322 286.777 326.69 286.958 327.03C287.151 327.37 287.406 327.648 287.723 327.863C288.04 328.067 288.392 328.169 288.777 328.169ZM297.341 333.167V323.511L297.97 323.987L295.624 325.228L295.131 323.63L298.31 321.93H299.194V333.167H297.341ZM295.454 334V332.232H301.132V334H295.454ZM307.065 334.051C306.329 334.051 305.654 333.898 305.042 333.592C304.442 333.275 303.96 332.855 303.597 332.334C303.235 331.813 303.053 331.235 303.053 330.6C303.053 330.249 303.099 329.92 303.189 329.614C303.291 329.297 303.439 329.008 303.631 328.747C303.835 328.486 304.079 328.248 304.362 328.033C304.646 327.818 304.974 327.625 305.348 327.455L305.246 327.812C304.85 327.665 304.51 327.472 304.226 327.234C303.943 326.985 303.722 326.701 303.563 326.384C303.416 326.067 303.342 325.721 303.342 325.347C303.342 324.746 303.507 324.202 303.835 323.715C304.175 323.228 304.623 322.837 305.178 322.542C305.745 322.247 306.374 322.1 307.065 322.1C307.757 322.1 308.38 322.247 308.935 322.542C309.502 322.837 309.95 323.228 310.278 323.715C310.618 324.202 310.788 324.746 310.788 325.347C310.788 325.721 310.715 326.061 310.567 326.367C310.42 326.673 310.205 326.951 309.921 327.2C309.638 327.438 309.287 327.642 308.867 327.812L308.816 327.523C309.27 327.704 309.666 327.954 310.006 328.271C310.346 328.588 310.613 328.951 310.805 329.359C310.998 329.756 311.094 330.169 311.094 330.6C311.094 331.246 310.913 331.83 310.55 332.351C310.188 332.872 309.7 333.286 309.088 333.592C308.488 333.898 307.813 334.051 307.065 334.051ZM307.065 332.351C307.485 332.351 307.859 332.272 308.187 332.113C308.527 331.954 308.794 331.739 308.986 331.467C309.179 331.195 309.275 330.883 309.275 330.532C309.275 330.158 309.179 329.829 308.986 329.546C308.794 329.251 308.527 329.019 308.187 328.849C307.859 328.679 307.485 328.594 307.065 328.594C306.646 328.594 306.272 328.679 305.943 328.849C305.615 329.019 305.354 329.251 305.161 329.546C304.969 329.829 304.872 330.158 304.872 330.532C304.872 330.872 304.969 331.178 305.161 331.45C305.354 331.722 305.615 331.943 305.943 332.113C306.272 332.272 306.646 332.351 307.065 332.351ZM307.065 326.962C307.428 326.962 307.751 326.894 308.034 326.758C308.329 326.622 308.556 326.441 308.714 326.214C308.884 325.976 308.969 325.704 308.969 325.398C308.969 325.092 308.884 324.82 308.714 324.582C308.556 324.344 308.329 324.157 308.034 324.021C307.751 323.874 307.428 323.8 307.065 323.8C306.703 323.8 306.374 323.874 306.079 324.021C305.796 324.157 305.569 324.344 305.399 324.582C305.241 324.82 305.161 325.092 305.161 325.398C305.161 325.704 305.241 325.976 305.399 326.214C305.569 326.441 305.796 326.622 306.079 326.758C306.374 326.894 306.703 326.962 307.065 326.962ZM313.578 334L313.017 332.606L316.655 328.509C316.848 328.305 317.046 328.073 317.25 327.812C317.465 327.54 317.669 327.262 317.862 326.979C318.055 326.696 318.208 326.418 318.321 326.146C318.446 325.863 318.508 325.596 318.508 325.347C318.508 324.984 318.434 324.678 318.287 324.429C318.151 324.168 317.947 323.97 317.675 323.834C317.414 323.698 317.097 323.63 316.723 323.63C316.394 323.63 316.071 323.726 315.754 323.919C315.437 324.112 315.148 324.384 314.887 324.735C314.626 325.086 314.422 325.494 314.275 325.959L312.864 325.075C313.057 324.418 313.346 323.857 313.731 323.392C314.128 322.916 314.598 322.553 315.142 322.304C315.697 322.055 316.298 321.93 316.944 321.93C317.613 321.93 318.208 322.072 318.729 322.355C319.25 322.627 319.658 323.012 319.953 323.511C320.248 323.998 320.395 324.565 320.395 325.211C320.395 325.54 320.35 325.88 320.259 326.231C320.168 326.571 320.021 326.928 319.817 327.302C319.624 327.676 319.375 328.073 319.069 328.492C318.763 328.9 318.395 329.336 317.964 329.801L315.261 332.742L314.921 332.232H320.769V334H313.578ZM323.215 334L328.145 323.256L328.349 323.8H322.331V322.1H329.692L329.93 323.273L325.187 334H323.215ZM335.675 334.17C334.769 334.17 333.987 333.921 333.329 333.422C332.683 332.923 332.185 332.221 331.833 331.314C331.482 330.396 331.306 329.308 331.306 328.05C331.306 326.792 331.482 325.71 331.833 324.803C332.185 323.885 332.683 323.177 333.329 322.678C333.987 322.179 334.769 321.93 335.675 321.93C336.582 321.93 337.364 322.179 338.021 322.678C338.679 323.177 339.183 323.885 339.534 324.803C339.886 325.71 340.061 326.792 340.061 328.05C340.061 329.308 339.886 330.396 339.534 331.314C339.183 332.221 338.679 332.923 338.021 333.422C337.364 333.921 336.582 334.17 335.675 334.17ZM335.675 332.504C336.503 332.504 337.143 332.119 337.596 331.348C338.05 330.566 338.276 329.467 338.276 328.05C338.276 326.633 338.05 325.54 337.596 324.769C337.143 323.987 336.503 323.596 335.675 323.596C334.848 323.596 334.208 323.987 333.754 324.769C333.301 325.54 333.074 326.633 333.074 328.05C333.074 329.467 333.301 330.566 333.754 331.348C334.208 332.119 334.848 332.504 335.675 332.504Z" fill="#979797"/>
<path d="M100.451 241L99.8506 237.664H106.667C107.403 237.664 107.931 237.592 108.251 237.448C108.571 237.304 108.787 237.128 108.899 236.92L109.859 239.728C109.779 240.032 109.563 240.28 109.211 240.472C108.859 240.664 108.451 240.8 107.987 240.88C107.539 240.96 107.099 241 106.667 241H100.451ZM103.571 232.168L106.163 228.832L110.387 236.32C110.595 236.688 110.795 236.968 110.987 237.16C111.195 237.352 111.419 237.488 111.659 237.568C111.899 237.632 112.187 237.664 112.523 237.664H112.763V241H112.523C112.011 241 111.531 240.96 111.083 240.88C110.651 240.8 110.235 240.664 109.835 240.472C109.451 240.264 109.067 239.968 108.683 239.584C108.315 239.2 107.931 238.704 107.531 238.096L103.571 232.168ZM112.77 241V237.664H117.018C116.938 236.928 116.714 236.184 116.346 235.432C115.994 234.664 115.546 233.88 115.002 233.08L118.026 229.984C118.506 230.928 118.922 231.944 119.274 233.032C119.626 234.12 119.81 235.32 119.826 236.632C119.858 237.928 119.586 239.384 119.01 241H112.77ZM112.77 237.664H113.01V241H112.77C112.29 241 112.05 240.44 112.05 239.32C112.05 238.216 112.29 237.664 112.77 237.664ZM114.714 247.24L112.386 244.888L114.57 242.536L116.898 244.888L114.714 247.24ZM118.89 247.24L116.562 244.888L118.794 242.536L121.122 244.888L118.89 247.24ZM122.716 241L122.116 237.664H128.932C129.668 237.664 130.196 237.592 130.516 237.448C130.836 237.304 131.052 237.128 131.164 236.92L132.124 239.728C132.044 240.032 131.828 240.28 131.476 240.472C131.124 240.664 130.716 240.8 130.252 240.88C129.804 240.96 129.364 241 128.932 241H122.716ZM125.836 232.168L128.428 228.832L132.652 236.32C132.86 236.688 133.06 236.968 133.252 237.16C133.46 237.352 133.684 237.488 133.924 237.568C134.164 237.632 134.452 237.664 134.788 237.664H135.028V241H134.788C134.276 241 133.796 240.96 133.348 240.88C132.916 240.8 132.5 240.664 132.1 240.472C131.716 240.264 131.332 239.968 130.948 239.584C130.58 239.2 130.196 238.704 129.796 238.096L125.836 232.168ZM135.035 241V237.664H135.635C137.107 237.664 138.347 237.624 139.355 237.544C140.379 237.464 141.251 237.352 141.971 237.208C142.691 237.048 143.315 236.856 143.843 236.632C144.387 236.408 144.915 236.152 145.427 235.864C145.555 235.784 145.675 235.72 145.787 235.672C145.899 235.608 146.003 235.552 146.099 235.504C146.195 235.44 146.291 235.392 146.387 235.36C145.779 235.072 145.219 234.808 144.707 234.568C144.195 234.328 143.699 234.112 143.219 233.92C142.739 233.728 142.283 233.584 141.851 233.488C141.419 233.376 140.987 233.32 140.555 233.32C140.059 233.32 139.587 233.456 139.139 233.728C138.691 233.984 138.235 234.48 137.771 235.216L135.539 234.064C136.051 233.008 136.603 232.184 137.195 231.592C137.787 231 138.411 230.584 139.067 230.344C139.723 230.104 140.371 229.984 141.011 229.984C141.843 229.984 142.619 230.12 143.339 230.392C144.075 230.648 144.763 230.968 145.403 231.352C146.059 231.736 146.699 232.128 147.323 232.528C147.947 232.912 148.571 233.24 149.195 233.512C149.819 233.768 150.475 233.888 151.163 233.872L151.115 236.776C150.683 236.84 150.147 237 149.507 237.256C148.883 237.512 148.155 237.856 147.323 238.288C146.715 238.608 146.067 238.928 145.379 239.248C144.691 239.568 143.899 239.864 143.003 240.136C142.107 240.392 141.043 240.6 139.811 240.76C138.579 240.92 137.115 241 135.419 241H135.035ZM135.035 237.664H135.275V241H135.035C134.555 241 134.315 240.44 134.315 239.32C134.315 238.216 134.555 237.664 135.035 237.664ZM142.619 247.24L140.291 244.888L142.523 242.536L144.851 244.888L142.619 247.24ZM166.842 241C164.586 241 162.93 240.568 161.874 239.704C160.818 238.824 160.29 237.608 160.29 236.056C160.29 235.352 160.41 234.56 160.65 233.68C160.89 232.784 161.33 231.776 161.97 230.656L164.49 231.784C164.186 232.552 163.978 233.2 163.866 233.728C163.754 234.24 163.698 234.704 163.698 235.12C163.698 235.808 163.85 236.336 164.154 236.704C164.474 237.072 164.906 237.328 165.45 237.472C166.01 237.6 166.65 237.664 167.37 237.664H176.13L177.066 241H166.842ZM173.466 241V237.664H177.714C177.634 236.928 177.418 236.184 177.066 235.432C176.714 234.664 176.258 233.88 175.698 233.08L178.722 229.984C179.202 230.928 179.618 231.944 179.97 233.032C180.322 234.12 180.506 235.32 180.522 236.632C180.554 237.928 180.29 239.384 179.73 241H173.466ZM173.466 237.664H173.706V241H173.466C172.986 241 172.746 240.44 172.746 239.32C172.746 238.216 172.986 237.664 173.466 237.664ZM170.562 247.24L168.234 244.888L170.466 242.536L172.794 244.888L170.562 247.24ZM188.219 241C187.403 241 186.715 240.912 186.155 240.736C185.595 240.56 185.139 240.296 184.787 239.944C184.435 239.592 184.179 239.16 184.019 238.648C183.859 238.12 183.779 237.512 183.779 236.824V223.24H187.187V235.696C187.187 236.048 187.211 236.352 187.259 236.608C187.307 236.864 187.395 237.072 187.523 237.232C187.667 237.392 187.859 237.504 188.099 237.568C188.355 237.632 188.683 237.664 189.083 237.664H190.019V241H188.219ZM206.028 241C205.004 241 204.124 240.904 203.388 240.712C202.668 240.504 202.052 240.264 201.54 239.992C201.044 239.704 200.604 239.432 200.22 239.176L201.996 237.04C202.812 237.456 203.86 237.664 205.14 237.664H208.188C208.06 237.232 207.924 236.824 207.78 236.44C207.636 236.04 207.468 235.624 207.276 235.192C207.1 234.76 206.876 234.264 206.604 233.704L210.516 231.088C210.644 232.064 210.748 233.088 210.828 234.16C210.908 235.216 210.9 236.312 210.804 237.448C210.724 238.584 210.492 239.768 210.108 241H206.028ZM190.02 241V237.664H192.612C192.708 237.344 192.788 236.984 192.852 236.584C192.932 236.168 192.98 235.736 192.996 235.288C193.028 234.824 193.028 234.352 192.996 233.872L197.004 232.504C196.796 233.528 196.588 234.416 196.38 235.168C196.188 235.92 195.964 236.608 195.708 237.232C195.468 237.84 195.18 238.44 194.844 239.032C194.524 239.624 194.124 240.28 193.644 241H190.02ZM197.748 241C196.66 241 195.724 240.904 194.94 240.712C194.172 240.504 193.54 240.272 193.044 240.016C192.548 239.744 192.172 239.504 191.916 239.296L193.284 236.896C193.716 237.136 194.22 237.328 194.796 237.472C195.388 237.6 196.036 237.664 196.74 237.664H199.332C199.428 237.408 199.508 237.072 199.572 236.656C199.652 236.24 199.7 235.792 199.716 235.312C199.748 234.832 199.756 234.352 199.74 233.872L203.772 232.504C203.548 233.528 203.332 234.416 203.124 235.168C202.916 235.92 202.692 236.608 202.452 237.232C202.212 237.84 201.924 238.44 201.588 239.032C201.252 239.624 200.844 240.28 200.364 241H197.748ZM212.988 241C212.204 241 211.492 240.936 210.852 240.808C210.228 240.68 209.676 240.512 209.196 240.304C208.716 240.08 208.292 239.864 207.924 239.656L209.244 237.112C209.436 237.208 209.644 237.288 209.868 237.352C210.092 237.416 210.324 237.472 210.564 237.52C210.82 237.568 211.084 237.608 211.356 237.64C211.628 237.656 211.908 237.664 212.196 237.664H213.132V241H212.988ZM190.02 237.664H190.26V241H190.02C189.54 241 189.3 240.44 189.3 239.32C189.3 238.216 189.54 237.664 190.02 237.664ZM213.129 241V237.664H213.729C215.201 237.664 216.441 237.624 217.449 237.544C218.473 237.464 219.345 237.352 220.065 237.208C220.785 237.048 221.409 236.856 221.937 236.632C222.481 236.408 223.009 236.152 223.521 235.864C223.649 235.784 223.769 235.72 223.881 235.672C223.993 235.608 224.097 235.552 224.193 235.504C224.289 235.44 224.385 235.392 224.481 235.36C223.873 235.072 223.313 234.808 222.801 234.568C222.289 234.328 221.793 234.112 221.313 233.92C220.833 233.728 220.377 233.584 219.945 233.488C219.513 233.376 219.081 233.32 218.649 233.32C218.153 233.32 217.681 233.456 217.233 233.728C216.785 233.984 216.329 234.48 215.865 235.216L213.633 234.064C214.145 233.008 214.697 232.184 215.289 231.592C215.881 231 216.505 230.584 217.161 230.344C217.817 230.104 218.465 229.984 219.105 229.984C219.937 229.984 220.713 230.12 221.433 230.392C222.169 230.648 222.857 230.968 223.497 231.352C224.153 231.736 224.793 232.128 225.417 232.528C226.041 232.912 226.665 233.24 227.289 233.512C227.913 233.768 228.569 233.888 229.257 233.872L229.209 236.776C228.777 236.84 228.241 237 227.601 237.256C226.977 237.512 226.249 237.856 225.417 238.288C224.809 238.608 224.161 238.928 223.473 239.248C222.785 239.568 221.993 239.864 221.097 240.136C220.201 240.392 219.137 240.6 217.905 240.76C216.673 240.92 215.209 241 213.513 241H213.129ZM213.129 237.664H213.369V241H213.129C212.649 241 212.409 240.44 212.409 239.32C212.409 238.216 212.649 237.664 213.129 237.664ZM238.384 241V238.192H239.704C239.592 238 239.488 237.768 239.392 237.496C239.312 237.208 239.272 236.888 239.272 236.536C239.272 235.752 239.44 235.072 239.776 234.496C240.128 233.92 240.6 233.48 241.192 233.176C241.784 232.856 242.456 232.696 243.208 232.696C243.704 232.696 244.2 232.752 244.696 232.864C245.208 232.96 245.664 233.112 246.064 233.32L244.984 235.768C244.696 235.64 244.424 235.56 244.168 235.528C243.928 235.496 243.728 235.48 243.568 235.48C243.104 235.48 242.752 235.608 242.512 235.864C242.272 236.12 242.152 236.432 242.152 236.8C242.152 237.072 242.224 237.32 242.368 237.544C242.512 237.752 242.736 237.912 243.04 238.024C243.36 238.136 243.776 238.192 244.288 238.192H246.376V241H238.384ZM253.587 241C252.771 241 252.083 240.912 251.523 240.736C250.963 240.56 250.507 240.296 250.155 239.944C249.803 239.592 249.547 239.16 249.387 238.648C249.227 238.12 249.147 237.512 249.147 236.824V223.24H252.555V235.696C252.555 236.048 252.579 236.352 252.627 236.608C252.675 236.864 252.763 237.072 252.891 237.232C253.035 237.392 253.227 237.504 253.467 237.568C253.723 237.632 254.051 237.664 254.451 237.664H255.387V241H253.587ZM271.395 241C270.371 241 269.491 240.904 268.755 240.712C268.035 240.504 267.419 240.264 266.907 239.992C266.411 239.704 265.971 239.432 265.587 239.176L267.363 237.04C268.179 237.456 269.227 237.664 270.507 237.664H273.555C273.427 237.232 273.291 236.824 273.147 236.44C273.003 236.04 272.835 235.624 272.643 235.192C272.467 234.76 272.243 234.264 271.971 233.704L275.883 231.088C276.011 232.064 276.115 233.088 276.195 234.16C276.275 235.216 276.267 236.312 276.171 237.448C276.091 238.584 275.859 239.768 275.475 241H271.395ZM255.387 241V237.664H257.979C258.075 237.344 258.155 236.984 258.219 236.584C258.299 236.168 258.347 235.736 258.363 235.288C258.395 234.824 258.395 234.352 258.363 233.872L262.371 232.504C262.163 233.528 261.955 234.416 261.747 235.168C261.555 235.92 261.331 236.608 261.075 237.232C260.835 237.84 260.547 238.44 260.211 239.032C259.891 239.624 259.491 240.28 259.011 241H255.387ZM263.115 241C262.027 241 261.091 240.904 260.307 240.712C259.539 240.504 258.907 240.272 258.411 240.016C257.915 239.744 257.539 239.504 257.283 239.296L258.651 236.896C259.083 237.136 259.587 237.328 260.163 237.472C260.755 237.6 261.403 237.664 262.107 237.664H264.699C264.795 237.408 264.875 237.072 264.939 236.656C265.019 236.24 265.067 235.792 265.083 235.312C265.115 234.832 265.123 234.352 265.107 233.872L269.139 232.504C268.915 233.528 268.699 234.416 268.491 235.168C268.283 235.92 268.059 236.608 267.819 237.232C267.579 237.84 267.291 238.44 266.955 239.032C266.619 239.624 266.211 240.28 265.731 241H263.115ZM278.355 241C277.571 241 276.859 240.936 276.219 240.808C275.595 240.68 275.043 240.512 274.563 240.304C274.083 240.08 273.659 239.864 273.291 239.656L274.611 237.112C274.803 237.208 275.011 237.288 275.235 237.352C275.459 237.416 275.691 237.472 275.931 237.52C276.187 237.568 276.451 237.608 276.723 237.64C276.995 237.656 277.275 237.664 277.563 237.664H278.499V241H278.355ZM255.387 237.664H255.627V241H255.387C254.907 241 254.667 240.44 254.667 239.32C254.667 238.216 254.907 237.664 255.387 237.664ZM267.291 227.344L264.915 224.992L267.147 222.616L269.475 224.992L267.291 227.344ZM265.251 231.112L262.923 228.736L265.107 226.384L267.435 228.736L265.251 231.112ZM269.427 231.112L267.099 228.736L269.331 226.384L271.659 228.736L269.427 231.112ZM278.496 241V237.664H282.744C282.664 236.928 282.44 236.184 282.072 235.432C281.72 234.664 281.272 233.88 280.728 233.08L283.752 229.984C284.232 230.928 284.648 231.944 285 233.032C285.352 234.12 285.536 235.32 285.552 236.632C285.584 237.928 285.312 239.384 284.736 241H278.496ZM278.496 237.664H278.736V241H278.496C278.016 241 277.776 240.44 277.776 239.32C277.776 238.216 278.016 237.664 278.496 237.664ZM282.36 228.256L280.032 225.904L282.264 223.552L284.592 225.904L282.36 228.256ZM288.803 223.24H292.211V241H288.803V223.24ZM287.987 247.312V245.512H288.635C288.571 245.416 288.515 245.288 288.467 245.128C288.419 244.968 288.395 244.8 288.395 244.624C288.395 243.968 288.619 243.44 289.067 243.04C289.531 242.64 290.147 242.44 290.915 242.44C291.235 242.44 291.539 242.472 291.827 242.536C292.131 242.616 292.403 242.72 292.643 242.848L291.947 244.432C291.803 244.368 291.659 244.32 291.515 244.288C291.371 244.256 291.227 244.24 291.083 244.24C290.795 244.24 290.579 244.296 290.435 244.408C290.307 244.536 290.243 244.688 290.243 244.864C290.243 244.96 290.275 245.056 290.339 245.152C290.419 245.264 290.547 245.352 290.723 245.416C290.899 245.48 291.147 245.512 291.467 245.512H292.835V247.312H287.987Z" fill="#D3D6DC"/>
<rect x="40" y="460" width="313" height="59" rx="10" fill="#354252"/>
<path d="M254.338 496.76C254.002 496.76 253.638 496.696 253.246 496.568C252.854 496.448 252.482 496.252 252.13 495.98L252.574 495.14C252.83 495.244 253.098 495.336 253.378 495.416C253.666 495.496 253.922 495.536 254.146 495.536C254.626 495.536 255.046 495.428 255.406 495.212C255.766 494.996 256.046 494.7 256.246 494.324C256.454 493.948 256.558 493.516 256.558 493.028C256.558 492.812 256.514 492.58 256.426 492.332C256.338 492.076 256.182 491.772 255.958 491.42C255.742 491.068 255.434 490.648 255.034 490.16L255.922 489.044C256.346 489.612 256.686 490.116 256.942 490.556C257.198 490.996 257.386 491.412 257.506 491.804C257.626 492.196 257.686 492.604 257.686 493.028C257.686 493.364 257.642 493.708 257.554 494.06C257.474 494.412 257.346 494.748 257.17 495.068C256.994 495.388 256.77 495.676 256.498 495.932C256.234 496.188 255.922 496.388 255.562 496.532C255.202 496.684 254.794 496.76 254.338 496.76ZM261.542 489.344C261.902 489.344 262.23 489.428 262.526 489.596C262.822 489.764 263.074 490.004 263.282 490.316C263.49 490.628 263.65 491.004 263.762 491.444C263.882 491.884 263.942 492.376 263.942 492.92C263.942 493.256 263.898 493.604 263.81 493.964C263.73 494.324 263.602 494.668 263.426 494.996C263.258 495.332 263.042 495.632 262.778 495.896C262.514 496.16 262.202 496.368 261.842 496.52C261.482 496.68 261.074 496.76 260.618 496.76C260.282 496.76 259.918 496.696 259.526 496.568C259.134 496.448 258.762 496.252 258.41 495.98L258.854 495.14C259.11 495.244 259.378 495.336 259.658 495.416C259.946 495.496 260.202 495.536 260.426 495.536C260.818 495.536 261.17 495.464 261.482 495.32C261.802 495.176 262.07 494.972 262.286 494.708C262.502 494.444 262.654 494.136 262.742 493.784C262.534 493.848 262.318 493.9 262.094 493.94C261.878 493.972 261.666 493.988 261.458 493.988C261.05 493.988 260.698 493.94 260.402 493.844C260.114 493.74 259.874 493.604 259.682 493.436C259.498 493.26 259.362 493.06 259.274 492.836C259.186 492.612 259.142 492.372 259.142 492.116C259.142 491.7 259.21 491.324 259.346 490.988C259.482 490.644 259.662 490.352 259.886 490.112C260.118 489.864 260.374 489.676 260.654 489.548C260.942 489.412 261.238 489.344 261.542 489.344ZM260.282 491.876C260.282 492.052 260.322 492.208 260.402 492.344C260.49 492.472 260.63 492.576 260.822 492.656C261.014 492.728 261.278 492.764 261.614 492.764C261.814 492.764 262.014 492.748 262.214 492.716C262.414 492.684 262.614 492.632 262.814 492.56C262.782 492.216 262.71 491.896 262.598 491.6C262.486 491.296 262.334 491.048 262.142 490.856C261.958 490.664 261.734 490.568 261.47 490.568C261.238 490.568 261.03 490.636 260.846 490.772C260.67 490.9 260.53 491.064 260.426 491.264C260.33 491.464 260.282 491.668 260.282 491.876ZM266.033 496.76C265.697 496.76 265.333 496.696 264.941 496.568C264.549 496.448 264.177 496.252 263.825 495.98L264.269 495.14C264.525 495.244 264.793 495.336 265.073 495.416C265.361 495.496 265.617 495.536 265.841 495.536C266.321 495.536 266.741 495.428 267.101 495.212C267.461 494.996 267.741 494.7 267.941 494.324C268.149 493.948 268.253 493.516 268.253 493.028C268.253 492.844 268.229 492.684 268.181 492.548C268.133 492.412 268.069 492.276 267.989 492.14C267.909 492.004 267.817 491.856 267.713 491.696L269.381 492.596C269.381 492.668 269.381 492.74 269.381 492.812C269.381 492.884 269.381 492.956 269.381 493.028C269.381 493.364 269.333 493.708 269.237 494.06C269.149 494.412 269.017 494.748 268.841 495.068C268.665 495.388 268.441 495.676 268.169 495.932C267.905 496.188 267.593 496.388 267.233 496.532C266.881 496.684 266.481 496.76 266.033 496.76ZM270.605 494C270.333 494 270.085 493.972 269.861 493.916C269.645 493.852 269.441 493.76 269.249 493.64C269.057 493.512 268.873 493.348 268.697 493.148C268.529 492.948 268.357 492.708 268.181 492.428L266.729 490.16L267.617 489.044L269.237 491.78C269.389 492.028 269.525 492.228 269.645 492.38C269.765 492.524 269.897 492.628 270.041 492.692C270.193 492.748 270.381 492.776 270.605 492.776H270.725V494H270.605ZM270.727 494V492.776H270.799C270.943 492.776 271.067 492.756 271.171 492.716C271.283 492.676 271.387 492.604 271.483 492.5C271.579 492.396 271.687 492.252 271.807 492.068C271.927 491.876 272.075 491.632 272.251 491.336C272.491 490.928 272.723 490.584 272.947 490.304C273.171 490.016 273.387 489.788 273.595 489.62C273.811 489.452 274.023 489.332 274.231 489.26C274.447 489.18 274.663 489.14 274.879 489.14C275.191 489.14 275.471 489.212 275.719 489.356C275.967 489.5 276.199 489.744 276.415 490.088C276.631 490.432 276.847 490.908 277.063 491.516C277.207 491.908 277.339 492.196 277.459 492.38C277.579 492.556 277.707 492.668 277.843 492.716C277.987 492.756 278.167 492.776 278.383 492.776H278.407V494H278.383C278.023 494 277.715 493.96 277.459 493.88C277.203 493.792 276.979 493.664 276.787 493.496C276.603 493.32 276.443 493.108 276.307 492.86C276.171 492.612 276.047 492.324 275.935 491.996C275.775 491.524 275.631 491.176 275.503 490.952C275.383 490.72 275.267 490.568 275.155 490.496C275.043 490.424 274.919 490.388 274.783 490.388C274.655 490.388 274.515 490.436 274.363 490.532C274.219 490.62 274.059 490.768 273.883 490.976C273.707 491.184 273.515 491.468 273.307 491.828C273.099 492.188 272.911 492.496 272.743 492.752C272.583 493 272.431 493.208 272.287 493.376C272.151 493.536 272.011 493.664 271.867 493.76C271.723 493.848 271.563 493.912 271.387 493.952C271.219 493.984 271.023 494 270.799 494H270.727ZM277.147 493.436C276.923 493.724 276.655 493.924 276.343 494.036C276.039 494.156 275.711 494.208 275.359 494.192C275.007 494.176 274.651 494.104 274.291 493.976C273.939 493.84 273.599 493.664 273.271 493.448C272.951 493.224 272.663 492.976 272.407 492.704L273.079 491.936C273.295 492.112 273.535 492.276 273.799 492.428C274.071 492.572 274.355 492.688 274.651 492.776C274.955 492.864 275.267 492.912 275.587 492.92C275.915 492.928 276.243 492.88 276.571 492.776L277.147 493.436ZM270.727 492.776H270.847V494H270.727C270.487 494 270.367 493.788 270.367 493.364C270.367 492.972 270.487 492.776 270.727 492.776ZM278.402 494V492.776H279.902V485.12H281.15V494H278.402ZM278.402 492.776H278.522V494H278.402C278.162 494 278.042 493.788 278.042 493.364C278.042 492.972 278.162 492.776 278.402 492.776ZM283.065 485.12H284.313V494H283.065V485.12ZM291.585 493.46C291.105 493.46 290.669 493.388 290.277 493.244C289.885 493.1 289.573 492.896 289.341 492.632C289.109 492.36 288.993 492.036 288.993 491.66C288.993 491.308 289.069 491 289.221 490.736C289.381 490.464 289.625 490.212 289.953 489.98C290.289 489.748 290.713 489.512 291.225 489.272C291.737 489.032 292.349 488.764 293.061 488.468L293.289 489.764C292.641 490.004 292.117 490.212 291.717 490.388C291.317 490.564 291.009 490.724 290.793 490.868C290.577 491.004 290.429 491.132 290.349 491.252C290.277 491.364 290.241 491.48 290.241 491.6C290.241 491.816 290.353 491.98 290.577 492.092C290.801 492.204 291.137 492.26 291.585 492.26C291.721 492.26 291.865 492.256 292.017 492.248C292.177 492.232 292.345 492.208 292.521 492.176C292.697 492.136 292.885 492.088 293.085 492.032L293.361 493.136C293.065 493.264 292.781 493.352 292.509 493.4C292.245 493.44 291.937 493.46 291.585 493.46ZM294.645 494C294.229 494 293.885 493.948 293.613 493.844C293.349 493.74 293.141 493.6 292.989 493.424C292.837 493.24 292.729 493.028 292.665 492.788C292.609 492.548 292.581 492.296 292.581 492.032V487.7H293.829V491.72C293.829 492.088 293.893 492.356 294.021 492.524C294.149 492.692 294.437 492.776 294.885 492.776H295.341V494H294.645ZM290.697 487.016L289.725 486.032L290.649 485.048L291.621 486.032L290.697 487.016ZM292.761 487.016L291.789 486.032L292.713 485.048L293.685 486.032L292.761 487.016ZM295.336 494V492.776H295.408C295.552 492.776 295.676 492.756 295.78 492.716C295.892 492.676 295.996 492.604 296.092 492.5C296.188 492.396 296.296 492.252 296.416 492.068C296.536 491.876 296.684 491.632 296.86 491.336C297.1 490.928 297.332 490.584 297.556 490.304C297.78 490.016 297.996 489.788 298.204 489.62C298.42 489.452 298.632 489.332 298.84 489.26C299.056 489.18 299.272 489.14 299.488 489.14C299.8 489.14 300.08 489.212 300.328 489.356C300.576 489.5 300.808 489.744 301.024 490.088C301.24 490.432 301.456 490.908 301.672 491.516C301.816 491.908 301.948 492.196 302.068 492.38C302.188 492.556 302.316 492.668 302.452 492.716C302.596 492.756 302.776 492.776 302.992 492.776H303.016V494H302.992C302.632 494 302.324 493.96 302.068 493.88C301.812 493.792 301.588 493.664 301.396 493.496C301.212 493.32 301.052 493.108 300.916 492.86C300.78 492.612 300.656 492.324 300.544 491.996C300.384 491.524 300.24 491.176 300.112 490.952C299.992 490.72 299.876 490.568 299.764 490.496C299.652 490.424 299.528 490.388 299.392 490.388C299.264 490.388 299.124 490.436 298.972 490.532C298.828 490.62 298.668 490.768 298.492 490.976C298.316 491.184 298.124 491.468 297.916 491.828C297.708 492.188 297.52 492.496 297.352 492.752C297.192 493 297.04 493.208 296.896 493.376C296.76 493.536 296.62 493.664 296.476 493.76C296.332 493.848 296.172 493.912 295.996 493.952C295.828 493.984 295.632 494 295.408 494H295.336ZM301.756 493.436C301.532 493.724 301.264 493.924 300.952 494.036C300.648 494.156 300.32 494.208 299.968 494.192C299.616 494.176 299.26 494.104 298.9 493.976C298.548 493.84 298.208 493.664 297.88 493.448C297.56 493.224 297.272 492.976 297.016 492.704L297.688 491.936C297.904 492.112 298.144 492.276 298.408 492.428C298.68 492.572 298.964 492.688 299.26 492.776C299.564 492.864 299.876 492.912 300.196 492.92C300.524 492.928 300.852 492.88 301.18 492.776L301.756 493.436ZM295.336 492.776H295.456V494H295.336C295.096 494 294.976 493.788 294.976 493.364C294.976 492.972 295.096 492.776 295.336 492.776ZM305.4 492.776H306.84V494H305.4V492.776ZM303.012 494V492.776H304.512V485.12H305.76V494H303.012ZM303.012 492.776H303.132V494H303.012C302.772 494 302.652 493.788 302.652 493.364C302.652 492.972 302.772 492.776 303.012 492.776ZM307.624 488.024L311.212 485.048L312.004 485.984L308.32 489.044L308.464 488.432C309.488 488.728 310.272 489.14 310.816 489.668C311.368 490.196 311.728 490.824 311.896 491.552C312.072 492.28 312.1 493.096 311.98 494H306.844V492.776H310.924C310.884 492.256 310.764 491.784 310.564 491.36C310.372 490.928 310.044 490.552 309.58 490.232C309.124 489.904 308.472 489.632 307.624 489.416V488.024ZM306.844 492.776H306.964V494H306.844C306.604 494 306.484 493.788 306.484 493.364C306.484 492.972 306.604 492.776 306.844 492.776ZM316.61 494L316.382 492.776H319.73C320.114 492.776 320.394 492.74 320.57 492.668C320.754 492.588 320.89 492.48 320.978 492.344L321.41 493.328C321.338 493.496 321.218 493.628 321.05 493.724C320.882 493.82 320.682 493.892 320.45 493.94C320.226 493.98 319.986 494 319.73 494H316.61ZM318.362 489.344L319.298 488.156L321.398 491.78C321.542 492.028 321.674 492.228 321.794 492.38C321.914 492.524 322.038 492.628 322.166 492.692C322.302 492.748 322.462 492.776 322.646 492.776H322.766V494H322.646C322.406 494 322.182 493.972 321.974 493.916C321.774 493.852 321.582 493.76 321.398 493.64C321.222 493.512 321.046 493.348 320.87 493.148C320.702 492.948 320.526 492.708 320.342 492.428L318.362 489.344ZM322.77 494V492.776H324.234C324.298 492.656 324.366 492.468 324.438 492.212C324.51 491.948 324.574 491.664 324.63 491.36C324.686 491.056 324.722 490.78 324.738 490.532L326.19 490.028C326.078 490.58 325.954 491.08 325.818 491.528C325.69 491.976 325.534 492.4 325.35 492.8C325.166 493.192 324.934 493.592 324.654 494H322.77ZM327.054 494C326.622 494 326.238 493.96 325.902 493.88C325.574 493.8 325.282 493.7 325.026 493.58C324.778 493.452 324.55 493.32 324.342 493.184L325.002 492.368C325.162 492.456 325.334 492.532 325.518 492.596C325.702 492.652 325.898 492.696 326.106 492.728C326.322 492.76 326.546 492.776 326.778 492.776H327.162V494H327.054ZM322.77 492.776H322.89V494H322.77C322.53 494 322.41 493.788 322.41 493.364C322.41 492.972 322.53 492.776 322.77 492.776ZM323.91 496.916L322.938 495.932L323.862 494.948L324.834 495.932L323.91 496.916ZM325.974 496.916L325.002 495.932L325.926 494.948L326.898 495.932L325.974 496.916ZM327.944 488.024L331.532 485.048L332.324 485.984L328.64 489.044L328.784 488.432C329.808 488.728 330.592 489.14 331.136 489.668C331.688 490.196 332.048 490.824 332.216 491.552C332.392 492.28 332.42 493.096 332.3 494H327.164V492.776H331.244C331.204 492.256 331.084 491.784 330.884 491.36C330.692 490.928 330.364 490.552 329.9 490.232C329.444 489.904 328.792 489.632 327.944 489.416V488.024ZM327.164 492.776H327.284V494H327.164C326.924 494 326.804 493.788 326.804 493.364C326.804 492.972 326.924 492.776 327.164 492.776ZM335.883 494C335.467 494 335.123 493.948 334.851 493.844C334.587 493.74 334.379 493.6 334.227 493.424C334.075 493.24 333.967 493.028 333.903 492.788C333.847 492.548 333.819 492.296 333.819 492.032V485.12H335.067V491.72C335.067 491.904 335.079 492.064 335.103 492.2C335.135 492.336 335.187 492.448 335.259 492.536C335.331 492.616 335.435 492.676 335.571 492.716C335.715 492.756 335.899 492.776 336.123 492.776H336.579V494H335.883ZM333.267 484.28V483.596H333.663C333.607 483.516 333.563 483.432 333.531 483.344C333.507 483.256 333.495 483.164 333.495 483.068C333.495 482.756 333.603 482.5 333.819 482.3C334.035 482.1 334.315 482 334.659 482C334.803 482 334.943 482.016 335.079 482.048C335.223 482.08 335.351 482.128 335.463 482.192L335.187 482.792C335.107 482.752 335.027 482.724 334.947 482.708C334.867 482.692 334.787 482.684 334.707 482.684C334.531 482.684 334.399 482.724 334.311 482.804C334.231 482.884 334.191 482.984 334.191 483.104C334.191 483.216 334.247 483.328 334.359 483.44C334.471 483.544 334.683 483.596 334.995 483.596H335.607V484.28H333.267ZM336.574 494V492.776H338.962C338.962 492.232 338.878 491.732 338.71 491.276C338.55 490.82 338.334 490.344 338.062 489.848L339.154 488.744C339.386 489.248 339.59 489.772 339.766 490.316C339.95 490.86 340.054 491.436 340.078 492.044C340.102 492.644 339.986 493.296 339.73 494H336.574ZM336.574 492.776H336.694V494H336.574C336.334 494 336.214 493.788 336.214 493.364C336.214 492.972 336.334 492.776 336.574 492.776ZM337.618 487.46L336.646 486.476L337.57 485.492L338.542 486.476L337.618 487.46ZM339.682 487.46L338.71 486.476L339.634 485.492L340.606 486.476L339.682 487.46Z" fill="white"/>
<rect x="40" y="592" width="313" height="59" rx="10" fill="#5B6FFB"/>
<path d="M184.29 624.116H185.73V626H184.29V624.116ZM180.378 628.76C179.674 628.76 179.082 628.668 178.602 628.484C178.122 628.3 177.738 628.052 177.45 627.74C177.162 627.436 176.954 627.1 176.826 626.732C176.698 626.364 176.634 626 176.634 625.64C176.634 625.264 176.678 624.86 176.766 624.428C176.862 623.996 177.006 623.528 177.198 623.024L178.794 623.528C178.69 623.856 178.61 624.156 178.554 624.428C178.506 624.692 178.482 624.928 178.482 625.136C178.482 625.52 178.566 625.84 178.734 626.096C178.91 626.36 179.154 626.556 179.466 626.684C179.786 626.812 180.158 626.876 180.582 626.876C180.854 626.876 181.114 626.844 181.362 626.78C181.618 626.716 181.846 626.604 182.046 626.444C182.254 626.292 182.418 626.084 182.538 625.82C182.658 625.556 182.718 625.224 182.718 624.824V617.12H184.65V624.836C184.65 625.652 184.486 626.352 184.158 626.936C183.838 627.52 183.362 627.968 182.73 628.28C182.098 628.6 181.314 628.76 180.378 628.76ZM185.734 626V624.116H187.402C187.434 623.98 187.462 623.796 187.486 623.564C187.51 623.332 187.53 623.1 187.546 622.868C187.562 622.628 187.566 622.428 187.558 622.268L189.814 621.476C189.67 622.06 189.526 622.608 189.382 623.12C189.246 623.624 189.082 624.112 188.89 624.584C188.706 625.048 188.466 625.52 188.17 626H185.734ZM190.654 626C190.102 626 189.634 625.948 189.25 625.844C188.874 625.732 188.558 625.604 188.302 625.46C188.046 625.308 187.826 625.168 187.642 625.04L188.662 623.852C188.774 623.908 188.906 623.956 189.058 623.996C189.21 624.036 189.378 624.068 189.562 624.092C189.746 624.108 189.938 624.116 190.138 624.116H190.654V626ZM185.734 624.116H185.854V626H185.734C185.494 626 185.374 625.688 185.374 625.064C185.374 624.432 185.494 624.116 185.734 624.116ZM187.114 629.228L185.854 627.944L187.042 626.672L188.302 627.944L187.114 629.228ZM189.226 629.228L187.966 627.944L189.166 626.672L190.426 627.944L189.226 629.228ZM199.344 626C198.808 626 198.368 625.952 198.024 625.856C197.688 625.76 197.404 625.604 197.172 625.388C196.948 625.164 196.74 624.872 196.548 624.512L197.832 623.912C197.92 623.96 198.016 624 198.12 624.032C198.232 624.056 198.376 624.076 198.552 624.092C198.736 624.108 198.968 624.116 199.248 624.116H199.704V626H199.344ZM190.656 624.116H190.776V626H190.656C190.416 626 190.296 625.688 190.296 625.064C190.296 624.432 190.416 624.116 190.656 624.116ZM190.656 626V624.116H190.932C191.66 624.116 192.272 624.1 192.768 624.068C193.264 624.036 193.684 623.988 194.028 623.924C194.372 623.852 194.672 623.764 194.928 623.66C195.184 623.556 195.436 623.432 195.684 623.288C195.74 623.256 195.788 623.228 195.828 623.204C195.868 623.18 195.904 623.16 195.936 623.144C195.976 623.12 196.008 623.104 196.032 623.096C195.736 622.944 195.468 622.816 195.228 622.712C194.988 622.6 194.76 622.512 194.544 622.448C194.336 622.376 194.136 622.324 193.944 622.292C193.76 622.26 193.572 622.244 193.38 622.244C193.132 622.244 192.904 622.312 192.696 622.448C192.488 622.584 192.268 622.82 192.036 623.156L190.8 622.52C191.072 621.952 191.364 621.512 191.676 621.2C191.988 620.888 192.312 620.672 192.648 620.552C192.984 620.424 193.316 620.36 193.644 620.36C194.076 620.36 194.472 620.424 194.832 620.552C195.2 620.68 195.544 620.84 195.864 621.032C196.184 621.224 196.496 621.416 196.8 621.608C197.104 621.792 197.408 621.948 197.712 622.076C198.016 622.204 198.34 622.264 198.684 622.256L198.648 623.888C198.44 623.944 198.184 624.028 197.88 624.14C197.576 624.244 197.224 624.4 196.824 624.608C196.504 624.776 196.168 624.944 195.816 625.112C195.464 625.272 195.06 625.42 194.604 625.556C194.148 625.692 193.612 625.8 192.996 625.88C192.38 625.96 191.652 626 190.812 626H190.656ZM190.656 624.116H190.776V626H190.656C190.416 626 190.296 625.688 190.296 625.064C190.296 624.432 190.416 624.116 190.656 624.116ZM194.424 629.228L193.152 627.944L194.364 626.672L195.624 627.944L194.424 629.228ZM207.707 626C207.155 626 206.687 625.948 206.303 625.844C205.927 625.732 205.611 625.604 205.355 625.46C205.099 625.308 204.879 625.168 204.695 625.04L205.703 623.852C206.071 624.028 206.563 624.116 207.179 624.116H208.691C208.611 623.964 208.531 623.808 208.451 623.648C208.371 623.48 208.279 623.296 208.175 623.096C208.079 622.896 207.959 622.672 207.815 622.424L210.047 620.924C210.111 621.404 210.159 621.916 210.191 622.46C210.231 622.996 210.219 623.56 210.155 624.152C210.099 624.736 209.963 625.352 209.747 626H207.707ZM199.703 626V624.116H200.855C200.879 623.948 200.899 623.776 200.915 623.6C200.931 623.424 200.935 623.236 200.927 623.036C200.927 622.836 200.915 622.62 200.891 622.388L203.171 621.608C203.059 622.168 202.951 622.644 202.847 623.036C202.743 623.428 202.627 623.776 202.499 624.08C202.371 624.384 202.219 624.684 202.043 624.98C201.875 625.276 201.663 625.616 201.407 626H199.703ZM203.423 626C202.823 626 202.315 625.948 201.899 625.844C201.483 625.732 201.151 625.608 200.903 625.472C200.663 625.328 200.495 625.216 200.399 625.136L201.107 623.732C201.307 623.852 201.551 623.948 201.839 624.02C202.135 624.084 202.459 624.116 202.811 624.116H204.275C204.299 623.996 204.319 623.848 204.335 623.672C204.351 623.488 204.359 623.288 204.359 623.072C204.359 622.848 204.347 622.62 204.323 622.388L206.615 621.608C206.495 622.168 206.379 622.644 206.267 623.036C206.163 623.428 206.047 623.776 205.919 624.08C205.799 624.384 205.651 624.684 205.475 624.98C205.299 625.276 205.087 625.616 204.839 626H203.423ZM211.163 626C210.739 626 210.359 625.964 210.023 625.892C209.695 625.82 209.407 625.728 209.159 625.616C208.911 625.496 208.695 625.38 208.511 625.268L209.243 623.84C209.339 623.888 209.443 623.928 209.555 623.96C209.667 623.992 209.783 624.02 209.903 624.044C210.023 624.068 210.151 624.088 210.287 624.104C210.423 624.112 210.563 624.116 210.707 624.116H211.223V626H211.163ZM199.703 624.116H199.823V626H199.703C199.463 626 199.343 625.688 199.343 625.064C199.343 624.432 199.463 624.116 199.703 624.116ZM211.223 626V624.116H213.335C213.271 623.836 213.147 623.524 212.963 623.18C212.779 622.836 212.547 622.488 212.267 622.136L213.995 620.372C214.235 620.828 214.443 621.328 214.619 621.872C214.795 622.416 214.883 623.028 214.883 623.708C214.891 624.38 214.747 625.144 214.451 626H211.223ZM211.223 624.116H211.343V626H211.223C210.983 626 210.863 625.688 210.863 625.064C210.863 624.432 210.983 624.116 211.223 624.116ZM212.147 619.712L210.887 618.44L212.075 617.156L213.335 618.44L212.147 619.712ZM214.259 619.712L212.999 618.44L214.199 617.156L215.459 618.44L214.259 619.712Z" fill="#D3D6DC"/>
<path d="M36.13 69.31H44.13C46.89 69.31 49.13 67.07 49.13 64.31C49.13 61.55 46.89 59.31 44.13 59.31H33.13" stroke="white" stroke-width="1.5" stroke-miterlimit="10" stroke-linecap="round" stroke-linejoin="round"/>
<path d="M35.43 61.81L32.87 59.25L35.43 56.69" stroke="white" stroke-width="1.5" stroke-linecap="round" stroke-linejoin="round"/>
<path d="M16.488 28L18.752 24.08C18.2133 24.1813 17.688 24.16 17.176 24.016C16.6693 23.8667 16.2133 23.624 15.808 23.288C15.4027 22.9467 15.08 22.5333 14.84 22.048C14.6 21.5627 14.48 21.0293 14.48 20.448C14.48 19.92 14.5787 19.424 14.776 18.96C14.9787 18.4907 15.256 18.08 15.608 17.728C15.96 17.3707 16.368 17.0933 16.832 16.896C17.3013 16.6933 17.8027 16.592 18.336 16.592C19.0347 16.592 19.6747 16.7653 20.256 17.112C20.8373 17.4587 21.3013 17.9253 21.648 18.512C21.9947 19.0933 22.168 19.7387 22.168 20.448C22.168 20.816 22.1227 21.152 22.032 21.456C21.9467 21.76 21.8107 22.08 21.624 22.416L18.416 28H16.488ZM18.32 22.632C18.7467 22.632 19.1253 22.5307 19.456 22.328C19.7867 22.12 20.0453 21.8507 20.232 21.52C20.424 21.184 20.52 20.824 20.52 20.44C20.52 20.024 20.4187 19.6507 20.216 19.32C20.0133 18.9893 19.744 18.728 19.408 18.536C19.0773 18.344 18.72 18.248 18.336 18.248C17.9093 18.248 17.5307 18.352 17.2 18.56C16.8693 18.768 16.608 19.04 16.416 19.376C16.224 19.7067 16.128 20.0613 16.128 20.44C16.128 20.84 16.224 21.208 16.416 21.544C16.6133 21.8747 16.8773 22.1387 17.208 22.336C17.5387 22.5333 17.9093 22.632 18.32 22.632ZM24.3526 21.752C24.1073 21.752 23.8993 21.6667 23.7286 21.496C23.5633 21.3253 23.4806 21.1173 23.4806 20.872C23.4806 20.632 23.5633 20.4267 23.7286 20.256C23.8993 20.0853 24.1073 20 24.3526 20C24.598 20 24.806 20.0853 24.9766 20.256C25.1473 20.4267 25.2326 20.632 25.2326 20.872C25.2326 21.1173 25.1473 21.3253 24.9766 21.496C24.806 21.6667 24.598 21.752 24.3526 21.752ZM24.3526 28.208C24.1073 28.208 23.8993 28.1227 23.7286 27.952C23.5633 27.7813 23.4806 27.5733 23.4806 27.328C23.4806 27.088 23.5633 26.8827 23.7286 26.712C23.8993 26.5413 24.1073 26.456 24.3526 26.456C24.598 26.456 24.806 26.5413 24.9766 26.712C25.1473 26.8827 25.2326 27.088 25.2326 27.328C25.2326 27.5733 25.1473 27.7813 24.9766 27.952C24.806 28.1227 24.598 28.208 24.3526 28.208ZM31.832 28V25.136H27.04V23.464L31.432 16.8H33.496V23.472H34.52V25.136H33.496V28H31.832ZM28.976 23.464L31.832 23.472L31.816 19.096L28.976 23.464ZM37.6541 28V18.464H36.3181L36.7741 16.8H39.3181V28H37.6541Z" fill="white"/>
<path fill-rule="evenodd" clip-rule="evenodd" d="M326 18H325C324.448 18 324 18.4197 324 18.9375V27.0625C324 27.5803 324.448 28 325 28H326C326.552 28 327 27.5803 327 27.0625V18.9375C327 18.4197 326.552 18 326 18ZM320 20H321C321.552 20 322 20.4298 322 20.96V27.04C322 27.5702 321.552 28 321 28H320C319.448 28 319 27.5702 319 27.04V20.96C319 20.4298 319.448 20 320 20ZM316 22H315C314.448 22 314 22.4477 314 23V27C314 27.5523 314.448 28 315 28H316C316.552 28 317 27.5523 317 27V23C317 22.4477 316.552 22 316 22ZM311 24H310C309.448 24 309 24.4477 309 25V27C309 27.5523 309.448 28 310 28H311C311.552 28 312 27.5523 312 27V25C312 24.4477 311.552 24 311 24Z" fill="white"/>
<path fill-rule="evenodd" clip-rule="evenodd" d="M339.637 19.2773C341.852 19.2774 343.984 20.1289 345.59 21.6557C345.711 21.7735 345.904 21.772 346.023 21.6523L347.179 20.4857C347.239 20.4249 347.273 20.3427 347.272 20.2571C347.272 20.1715 347.237 20.0897 347.176 20.0297C342.961 15.9901 336.311 15.9901 332.096 20.0297C332.035 20.0896 332.001 20.1715 332 20.257C331.999 20.3426 332.033 20.4249 332.093 20.4857L333.25 21.6523C333.369 21.7722 333.562 21.7737 333.683 21.6557C335.289 20.1288 337.42 19.2773 339.637 19.2773ZM339.637 23.0729C340.854 23.0728 342.028 23.5254 342.931 24.3426C343.053 24.4585 343.245 24.456 343.364 24.3369L344.519 23.1702C344.579 23.109 344.613 23.026 344.612 22.9398C344.611 22.8535 344.576 22.7712 344.514 22.7112C341.766 20.1548 337.51 20.1548 334.762 22.7112C334.699 22.7712 334.664 22.8535 334.663 22.9398C334.662 23.0261 334.696 23.1091 334.757 23.1702L335.912 24.3369C336.031 24.456 336.223 24.4585 336.345 24.3426C337.247 23.5259 338.42 23.0734 339.637 23.0729ZM341.95 25.6267C341.951 25.7132 341.917 25.7966 341.856 25.8572L339.858 27.8729C339.8 27.9321 339.72 27.9655 339.637 27.9655C339.553 27.9655 339.473 27.9321 339.415 27.8729L337.417 25.8572C337.356 25.7966 337.322 25.7131 337.323 25.6266C337.325 25.5401 337.363 25.4582 337.427 25.4002C338.703 24.3213 340.571 24.3213 341.846 25.4002C341.91 25.4583 341.948 25.5402 341.95 25.6267Z" fill="white"/>
<path opacity="0.35" d="M353.5 18.6667C353.5 17.4701 354.47 16.5 355.667 16.5H375.333C376.53 16.5 377.5 17.47 377.5 18.6667V26.3333C377.5 27.53 376.53 28.5 375.333 28.5H355.667C354.47 28.5 353.5 27.53 353.5 26.3333V18.6667Z" stroke="white"/>
<path opacity="0.4" d="M378.65 21V25C379.455 24.6612 379.978 23.8731 379.978 23C379.978 22.1269 379.455 21.3388 378.65 21Z" fill="white"/>
<path d="M355.3 19.6666C355.3 18.9302 355.897 18.3333 356.633 18.3333H374.167C374.903 18.3333 375.5 18.9302 375.5 19.6666V25.3299C375.5 26.0663 374.903 26.6633 374.167 26.6633H356.633C355.897 26.6633 355.3 26.0663 355.3 25.3299V19.6666Z" fill="white"/>
</g>
<defs>
<clipPath id="clip0_12_26">
<rect width="393" height="852" fill="white"/>
</clipPath>
</defs>
</svg>
