<svg width="393" height="852" viewBox="0 0 393 852" fill="none" xmlns="http://www.w3.org/2000/svg">
<g clip-path="url(#clip0_17_379)">
<rect width="393" height="852" fill="#232736"/>
<path d="M90.229 199.84L90.973 202.48C90.141 202.8 89.333 203.072 88.549 203.296C87.781 203.52 86.989 203.68 86.173 203.776C85.357 203.888 84.461 203.944 83.485 203.944C82.221 203.944 81.045 203.792 79.957 203.488C78.885 203.184 77.949 202.736 77.149 202.144C76.365 201.568 75.749 200.856 75.301 200.008C74.869 199.16 74.653 198.184 74.653 197.08C74.653 195.96 74.853 194.912 75.253 193.936C75.669 192.96 76.293 192.064 77.125 191.248C77.957 190.416 79.005 189.656 80.269 188.968C81.533 188.28 83.021 187.672 84.733 187.144C84.381 186.968 84.021 186.8 83.653 186.64C83.285 186.48 82.917 186.336 82.549 186.208C82.181 186.064 81.821 185.96 81.469 185.896C81.117 185.816 80.781 185.776 80.461 185.776C79.965 185.776 79.501 185.864 79.069 186.04C78.653 186.216 78.269 186.48 77.917 186.832C77.565 187.168 77.221 187.584 76.885 188.08L74.941 187C75.389 186.088 75.909 185.296 76.501 184.624C77.109 183.936 77.797 183.408 78.565 183.04C79.333 182.656 80.189 182.464 81.133 182.464C81.869 182.464 82.581 182.584 83.269 182.824C83.973 183.048 84.645 183.328 85.285 183.664C85.941 184 86.557 184.336 87.133 184.672C87.709 185.008 88.245 185.288 88.741 185.512C89.237 185.72 89.685 185.816 90.085 185.8V188.536C88.389 188.984 86.813 189.456 85.357 189.952C83.901 190.448 82.629 191.016 81.541 191.656C80.453 192.28 79.597 193.008 78.973 193.84C78.365 194.672 78.061 195.64 78.061 196.744C78.061 197.544 78.309 198.232 78.805 198.808C79.301 199.384 80.045 199.824 81.037 200.128C82.045 200.448 83.285 200.608 84.757 200.608C85.541 200.608 86.237 200.576 86.845 200.512C87.469 200.448 88.053 200.36 88.597 200.248C89.157 200.136 89.701 200 90.229 199.84ZM97.4733 193C96.6573 193 95.9693 192.912 95.4093 192.736C94.8493 192.56 94.3933 192.296 94.0413 191.944C93.6893 191.592 93.4333 191.16 93.2733 190.648C93.1133 190.12 93.0333 189.512 93.0333 188.824V175.24H96.4413V187.696C96.4413 188.048 96.4653 188.352 96.5133 188.608C96.5613 188.864 96.6493 189.072 96.7773 189.232C96.9213 189.392 97.1133 189.504 97.3533 189.568C97.6093 189.632 97.9373 189.664 98.3372 189.664H99.2733V193H97.4733ZM116.697 193C115.657 193 114.793 192.904 114.105 192.712C113.433 192.504 112.873 192.176 112.425 191.728C111.977 191.264 111.593 190.672 111.273 189.952L113.529 188.872C113.705 189.064 113.913 189.216 114.153 189.328C114.393 189.44 114.705 189.528 115.089 189.592C115.489 189.64 115.985 189.664 116.577 189.664H117.465V193H116.697ZM99.2734 189.664H99.5134V193H99.2734C98.7934 193 98.5534 192.44 98.5534 191.32C98.5534 190.216 98.7934 189.664 99.2734 189.664ZM99.2734 193V189.664H99.8734C101.345 189.664 102.585 189.624 103.593 189.544C104.617 189.464 105.489 189.352 106.209 189.208C106.929 189.048 107.553 188.856 108.081 188.632C108.625 188.408 109.153 188.152 109.665 187.864C109.793 187.784 109.913 187.72 110.025 187.672C110.137 187.608 110.241 187.552 110.337 187.504C110.433 187.44 110.529 187.392 110.625 187.36C110.017 187.072 109.457 186.808 108.945 186.568C108.433 186.328 107.937 186.112 107.457 185.92C106.977 185.728 106.521 185.584 106.089 185.488C105.657 185.376 105.225 185.32 104.793 185.32C104.297 185.32 103.825 185.456 103.377 185.728C102.929 185.984 102.473 186.48 102.009 187.216L99.7774 186.064C100.289 185.008 100.841 184.184 101.433 183.592C102.025 183 102.649 182.584 103.305 182.344C103.961 182.104 104.609 181.984 105.249 181.984C106.081 181.984 106.857 182.12 107.577 182.392C108.313 182.648 109.001 182.968 109.641 183.352C110.297 183.736 110.937 184.128 111.561 184.528C112.185 184.912 112.809 185.24 113.433 185.512C114.057 185.768 114.713 185.888 115.401 185.872L115.353 188.776C114.921 188.84 114.385 189 113.745 189.256C113.121 189.512 112.393 189.856 111.561 190.288C110.953 190.608 110.305 190.928 109.617 191.248C108.929 191.568 108.137 191.864 107.241 192.136C106.345 192.392 105.281 192.6 104.049 192.76C102.817 192.92 101.353 193 99.6574 193H99.2734ZM99.2734 189.664H99.5134V193H99.2734C98.7934 193 98.5534 192.44 98.5534 191.32C98.5534 190.216 98.7934 189.664 99.2734 189.664ZM106.857 199.24L104.529 196.888L106.761 194.536L109.089 196.888L106.857 199.24ZM117.461 193V189.664H120.653C120.749 189.408 120.837 189.04 120.917 188.56C120.997 188.08 121.061 187.584 121.109 187.072C121.173 186.544 121.205 186.088 121.205 185.704L125.189 184.312C124.917 185.464 124.645 186.528 124.373 187.504C124.101 188.48 123.773 189.416 123.389 190.312C123.021 191.192 122.549 192.088 121.973 193H117.461ZM126.869 193C125.845 193 124.965 192.904 124.229 192.712C123.509 192.504 122.893 192.264 122.381 191.992C121.885 191.704 121.445 191.432 121.061 191.176L122.861 189.04C123.117 189.184 123.405 189.304 123.725 189.4C124.045 189.48 124.397 189.544 124.781 189.592C125.181 189.64 125.589 189.664 126.005 189.664H126.941V193H126.869ZM117.461 189.664H117.701V193H117.461C116.981 193 116.741 192.44 116.741 191.32C116.741 190.216 116.981 189.664 117.461 189.664ZM123.269 182.368L120.941 180.016L123.173 177.664L125.501 180.016L123.269 182.368ZM126.93 193V189.664H131.178C131.098 188.928 130.874 188.184 130.506 187.432C130.154 186.664 129.706 185.88 129.162 185.08L132.186 181.984C132.666 182.928 133.082 183.944 133.434 185.032C133.786 186.12 133.97 187.32 133.986 188.632C134.018 189.928 133.746 191.384 133.17 193H126.93ZM126.93 189.664H127.17V193H126.93C126.45 193 126.21 192.44 126.21 191.32C126.21 190.216 126.45 189.664 126.93 189.664ZM130.914 199.24L128.586 196.888L130.818 194.536L133.146 196.888L130.914 199.24ZM163.244 189.664H166.124V193H163.244V189.664ZM149.924 193C147.668 193 146.012 192.568 144.956 191.704C143.9 190.824 143.372 189.608 143.372 188.056C143.372 187.352 143.492 186.56 143.732 185.68C143.972 184.784 144.412 183.784 145.052 182.68L147.572 183.784C147.268 184.552 147.06 185.2 146.948 185.728C146.836 186.24 146.78 186.704 146.78 187.12C146.78 187.808 146.932 188.336 147.236 188.704C147.556 189.072 147.988 189.328 148.532 189.472C149.092 189.6 149.732 189.664 150.452 189.664H162.476L162.428 193H149.924ZM160.556 193V175.24H163.964V193H160.556ZM151.1 185.776V183.64H151.892C151.796 183.512 151.716 183.36 151.652 183.184C151.604 182.992 151.58 182.784 151.58 182.56C151.58 181.776 151.86 181.144 152.42 180.664C152.98 180.184 153.708 179.944 154.604 179.944C154.876 179.944 155.132 179.968 155.372 180.016C155.612 180.048 155.844 180.104 156.068 180.184C156.292 180.248 156.5 180.336 156.692 180.448L155.876 182.344C155.684 182.264 155.5 182.208 155.324 182.176C155.148 182.128 154.98 182.104 154.82 182.104C154.484 182.104 154.228 182.176 154.052 182.32C153.892 182.448 153.812 182.616 153.812 182.824C153.812 182.968 153.852 183.104 153.932 183.232C154.012 183.344 154.156 183.44 154.364 183.52C154.588 183.6 154.892 183.64 155.276 183.64H156.932V185.776H151.1ZM166.117 193V189.664H170.365C170.285 188.928 170.061 188.184 169.693 187.432C169.341 186.664 168.893 185.88 168.349 185.08L171.373 181.984C171.853 182.928 172.269 183.944 172.621 185.032C172.973 186.12 173.157 187.32 173.173 188.632C173.205 189.928 172.933 191.384 172.357 193H166.117ZM166.117 189.664H166.357V193H166.117C165.637 193 165.397 192.44 165.397 191.32C165.397 190.216 165.637 189.664 166.117 189.664ZM170.101 199.24L167.773 196.888L170.005 194.536L172.333 196.888L170.101 199.24ZM180.864 193C180.048 193 179.36 192.912 178.8 192.736C178.24 192.56 177.784 192.296 177.432 191.944C177.08 191.592 176.824 191.16 176.664 190.648C176.504 190.12 176.424 189.512 176.424 188.824V175.24H179.832V187.696C179.832 188.048 179.856 188.352 179.904 188.608C179.952 188.864 180.04 189.072 180.168 189.232C180.312 189.392 180.504 189.504 180.744 189.568C181 189.632 181.328 189.664 181.728 189.664H182.664V193H180.864ZM198.672 193C197.648 193 196.768 192.904 196.032 192.712C195.312 192.504 194.696 192.264 194.184 191.992C193.688 191.704 193.248 191.432 192.864 191.176L194.64 189.04C195.456 189.456 196.504 189.664 197.784 189.664H200.832C200.704 189.232 200.568 188.824 200.424 188.44C200.28 188.04 200.112 187.624 199.92 187.192C199.744 186.76 199.52 186.264 199.248 185.704L203.16 183.088C203.288 184.064 203.392 185.088 203.472 186.16C203.552 187.216 203.544 188.312 203.448 189.448C203.368 190.584 203.136 191.768 202.752 193H198.672ZM182.664 193V189.664H185.256C185.352 189.344 185.432 188.984 185.496 188.584C185.576 188.168 185.624 187.736 185.64 187.288C185.672 186.824 185.672 186.352 185.64 185.872L189.648 184.504C189.44 185.528 189.232 186.416 189.024 187.168C188.832 187.92 188.608 188.608 188.352 189.232C188.112 189.84 187.824 190.44 187.488 191.032C187.168 191.624 186.768 192.28 186.288 193H182.664ZM190.392 193C189.304 193 188.368 192.904 187.584 192.712C186.816 192.504 186.184 192.272 185.688 192.016C185.192 191.744 184.816 191.504 184.56 191.296L185.928 188.896C186.36 189.136 186.864 189.328 187.44 189.472C188.032 189.6 188.68 189.664 189.384 189.664H191.976C192.072 189.408 192.152 189.072 192.216 188.656C192.296 188.24 192.344 187.792 192.36 187.312C192.392 186.832 192.4 186.352 192.384 185.872L196.416 184.504C196.192 185.528 195.976 186.416 195.768 187.168C195.56 187.92 195.336 188.608 195.096 189.232C194.856 189.84 194.568 190.44 194.232 191.032C193.896 191.624 193.488 192.28 193.008 193H190.392ZM205.632 193C204.848 193 204.136 192.936 203.496 192.808C202.872 192.68 202.32 192.512 201.84 192.304C201.36 192.08 200.936 191.864 200.568 191.656L201.888 189.112C202.08 189.208 202.288 189.288 202.512 189.352C202.736 189.416 202.968 189.472 203.208 189.52C203.464 189.568 203.728 189.608 204 189.64C204.272 189.656 204.552 189.664 204.84 189.664H205.776V193H205.632ZM182.664 189.664H182.904V193H182.664C182.184 193 181.944 192.44 181.944 191.32C181.944 190.216 182.184 189.664 182.664 189.664ZM205.773 193V189.664H206.373C207.845 189.664 209.085 189.624 210.093 189.544C211.117 189.464 211.989 189.352 212.709 189.208C213.429 189.048 214.053 188.856 214.581 188.632C215.125 188.408 215.653 188.152 216.165 187.864C216.293 187.784 216.413 187.72 216.525 187.672C216.637 187.608 216.741 187.552 216.837 187.504C216.933 187.44 217.029 187.392 217.125 187.36C216.517 187.072 215.957 186.808 215.445 186.568C214.933 186.328 214.437 186.112 213.957 185.92C213.477 185.728 213.021 185.584 212.589 185.488C212.157 185.376 211.725 185.32 211.293 185.32C210.797 185.32 210.325 185.456 209.877 185.728C209.429 185.984 208.973 186.48 208.509 187.216L206.277 186.064C206.789 185.008 207.341 184.184 207.933 183.592C208.525 183 209.149 182.584 209.805 182.344C210.461 182.104 211.109 181.984 211.749 181.984C212.581 181.984 213.357 182.12 214.077 182.392C214.813 182.648 215.501 182.968 216.141 183.352C216.797 183.736 217.437 184.128 218.061 184.528C218.685 184.912 219.309 185.24 219.933 185.512C220.557 185.768 221.213 185.888 221.901 185.872L221.853 188.776C221.421 188.84 220.885 189 220.245 189.256C219.621 189.512 218.893 189.856 218.061 190.288C217.453 190.608 216.805 190.928 216.117 191.248C215.429 191.568 214.637 191.864 213.741 192.136C212.845 192.392 211.781 192.6 210.549 192.76C209.317 192.92 207.853 193 206.157 193H205.773ZM205.773 189.664H206.013V193H205.773C205.293 193 205.053 192.44 205.053 191.32C205.053 190.216 205.293 189.664 205.773 189.664ZM231.029 193V190.192H232.349C232.237 190 232.133 189.768 232.037 189.496C231.957 189.208 231.917 188.888 231.917 188.536C231.917 187.752 232.085 187.072 232.421 186.496C232.773 185.92 233.245 185.48 233.837 185.176C234.429 184.856 235.101 184.696 235.853 184.696C236.349 184.696 236.845 184.752 237.341 184.864C237.853 184.96 238.309 185.112 238.709 185.32L237.629 187.768C237.341 187.64 237.069 187.56 236.813 187.528C236.573 187.496 236.373 187.48 236.213 187.48C235.749 187.48 235.397 187.608 235.157 187.864C234.917 188.12 234.797 188.432 234.797 188.8C234.797 189.072 234.869 189.32 235.013 189.544C235.157 189.752 235.381 189.912 235.685 190.024C236.005 190.136 236.421 190.192 236.933 190.192H239.021V193H231.029ZM246.231 193C245.415 193 244.727 192.912 244.167 192.736C243.607 192.56 243.151 192.296 242.799 191.944C242.447 191.592 242.191 191.16 242.031 190.648C241.871 190.12 241.791 189.512 241.791 188.824V175.24H245.199V187.696C245.199 188.048 245.223 188.352 245.271 188.608C245.319 188.864 245.407 189.072 245.535 189.232C245.679 189.392 245.871 189.504 246.111 189.568C246.367 189.632 246.695 189.664 247.095 189.664H248.031V193H246.231ZM264.039 193C263.015 193 262.135 192.904 261.399 192.712C260.679 192.504 260.063 192.264 259.551 191.992C259.055 191.704 258.615 191.432 258.231 191.176L260.007 189.04C260.823 189.456 261.871 189.664 263.151 189.664H266.199C266.071 189.232 265.935 188.824 265.791 188.44C265.647 188.04 265.479 187.624 265.287 187.192C265.111 186.76 264.887 186.264 264.615 185.704L268.527 183.088C268.655 184.064 268.759 185.088 268.839 186.16C268.919 187.216 268.911 188.312 268.815 189.448C268.735 190.584 268.503 191.768 268.119 193H264.039ZM248.031 193V189.664H250.623C250.719 189.344 250.799 188.984 250.863 188.584C250.943 188.168 250.991 187.736 251.007 187.288C251.039 186.824 251.039 186.352 251.007 185.872L255.015 184.504C254.807 185.528 254.599 186.416 254.391 187.168C254.199 187.92 253.975 188.608 253.719 189.232C253.479 189.84 253.191 190.44 252.855 191.032C252.535 191.624 252.135 192.28 251.655 193H248.031ZM255.759 193C254.671 193 253.735 192.904 252.951 192.712C252.183 192.504 251.551 192.272 251.055 192.016C250.559 191.744 250.183 191.504 249.927 191.296L251.295 188.896C251.727 189.136 252.231 189.328 252.807 189.472C253.399 189.6 254.047 189.664 254.751 189.664H257.343C257.439 189.408 257.519 189.072 257.583 188.656C257.663 188.24 257.711 187.792 257.727 187.312C257.759 186.832 257.767 186.352 257.751 185.872L261.783 184.504C261.559 185.528 261.343 186.416 261.135 187.168C260.927 187.92 260.703 188.608 260.463 189.232C260.223 189.84 259.935 190.44 259.599 191.032C259.263 191.624 258.855 192.28 258.375 193H255.759ZM270.999 193C270.215 193 269.503 192.936 268.863 192.808C268.239 192.68 267.687 192.512 267.207 192.304C266.727 192.08 266.303 191.864 265.935 191.656L267.255 189.112C267.447 189.208 267.655 189.288 267.879 189.352C268.103 189.416 268.335 189.472 268.575 189.52C268.831 189.568 269.095 189.608 269.367 189.64C269.639 189.656 269.919 189.664 270.207 189.664H271.143V193H270.999ZM248.031 189.664H248.271V193H248.031C247.551 193 247.311 192.44 247.311 191.32C247.311 190.216 247.551 189.664 248.031 189.664ZM259.935 179.344L257.559 176.992L259.791 174.616L262.119 176.992L259.935 179.344ZM257.895 183.112L255.567 180.736L257.751 178.384L260.079 180.736L257.895 183.112ZM262.071 183.112L259.743 180.736L261.975 178.384L264.303 180.736L262.071 183.112ZM271.141 193V189.664H275.389C275.309 188.928 275.085 188.184 274.717 187.432C274.365 186.664 273.917 185.88 273.373 185.08L276.397 181.984C276.877 182.928 277.293 183.944 277.645 185.032C277.997 186.12 278.181 187.32 278.197 188.632C278.229 189.928 277.957 191.384 277.381 193H271.141ZM271.141 189.664H271.381V193H271.141C270.661 193 270.421 192.44 270.421 191.32C270.421 190.216 270.661 189.664 271.141 189.664ZM275.005 180.256L272.677 177.904L274.909 175.552L277.237 177.904L275.005 180.256ZM281.447 175.24H284.855V193H281.447V175.24ZM298.338 204.88L298.986 204.016L295.314 203.68L295.938 203.944C295.906 202.504 295.81 201.136 295.65 199.84C295.506 198.544 295.338 197.344 295.146 196.24C294.954 195.152 294.794 194.16 294.666 193.264C294.538 192.384 294.474 191.632 294.474 191.008C294.474 190.624 294.522 190.184 294.618 189.688C294.73 189.176 294.97 188.616 295.338 188.008C295.722 187.4 296.306 186.744 297.09 186.04C297.65 185.544 298.234 185.04 298.842 184.528C299.466 184.016 300.098 183.584 300.738 183.232C301.394 182.88 302.026 182.704 302.634 182.704C303.114 182.704 303.546 182.872 303.93 183.208C304.33 183.528 304.738 184.072 305.154 184.84C305.586 185.592 306.098 186.616 306.69 187.912C306.818 188.184 306.946 188.432 307.074 188.656C307.218 188.88 307.378 189.064 307.554 189.208C307.746 189.352 307.97 189.464 308.226 189.544C308.498 189.624 308.826 189.664 309.21 189.664H309.33V193H309.138C308.45 193 307.858 192.936 307.362 192.808C306.882 192.664 306.45 192.432 306.066 192.112C305.698 191.792 305.346 191.344 305.01 190.768C304.69 190.192 304.346 189.464 303.978 188.584C303.674 187.848 303.41 187.304 303.186 186.952C302.978 186.584 302.786 186.344 302.61 186.232C302.45 186.104 302.29 186.04 302.13 186.04C302.034 186.04 301.882 186.088 301.674 186.184C301.482 186.28 301.226 186.44 300.906 186.664C300.586 186.872 300.202 187.168 299.754 187.552C299.194 188.016 298.77 188.44 298.482 188.824C298.194 189.192 297.994 189.544 297.882 189.88C297.77 190.216 297.714 190.576 297.714 190.96C297.714 191.968 297.794 192.992 297.954 194.032C298.13 195.072 298.306 196.152 298.482 197.272C298.658 198.392 298.754 199.576 298.77 200.824C298.802 202.088 298.658 203.44 298.338 204.88ZM303.138 193.384C302.866 193.384 302.538 193.352 302.154 193.288C301.786 193.224 301.394 193.128 300.978 193C300.562 192.856 300.154 192.696 299.754 192.52C299.354 192.328 298.994 192.112 298.674 191.872C298.482 191.712 298.298 191.544 298.122 191.368C297.962 191.176 297.826 190.896 297.714 190.528C297.618 190.16 297.554 189.632 297.522 188.944L298.266 187.888C298.65 188.256 299.09 188.6 299.586 188.92C300.098 189.24 300.65 189.512 301.242 189.736C301.834 189.96 302.442 190.104 303.066 190.168C303.69 190.232 304.314 190.184 304.938 190.024L305.706 191.632C305.594 191.904 305.434 192.176 305.226 192.448C305.018 192.72 304.738 192.944 304.386 193.12C304.05 193.296 303.634 193.384 303.138 193.384ZM309.32 193V189.664H313.568C313.488 188.928 313.264 188.184 312.896 187.432C312.544 186.664 312.096 185.88 311.552 185.08L314.576 181.984C315.056 182.928 315.472 183.944 315.824 185.032C316.176 186.12 316.36 187.32 316.376 188.632C316.408 189.928 316.136 191.384 315.56 193H309.32ZM309.32 189.664H309.56V193H309.32C308.84 193 308.6 192.44 308.6 191.32C308.6 190.216 308.84 189.664 309.32 189.664ZM311.096 180.256L308.768 177.904L310.952 175.552L313.28 177.904L311.096 180.256ZM315.272 180.256L312.944 177.904L315.176 175.552L317.504 177.904L315.272 180.256Z" fill="#D3D6DC"/>
<path d="M70.3071 361.6C69.3338 361.6 68.4471 361.493 67.6471 361.28C66.8471 361.08 66.1604 360.767 65.5871 360.34C65.0271 359.913 64.5871 359.373 64.2671 358.72C63.9604 358.08 63.8071 357.327 63.8071 356.46C63.8071 356.02 63.8738 355.453 64.0071 354.76C64.1538 354.067 64.3938 353.327 64.7271 352.54L66.8071 353.22C66.6204 353.753 66.4738 354.253 66.3671 354.72C66.2738 355.187 66.2271 355.613 66.2271 356C66.2271 356.52 66.3204 356.98 66.5071 357.38C66.6938 357.78 66.9671 358.113 67.3271 358.38C67.7004 358.647 68.1604 358.847 68.7071 358.98C69.2538 359.127 69.8871 359.2 70.6071 359.2C71.5271 359.2 72.3138 359.12 72.9671 358.96C73.6204 358.813 74.1538 358.627 74.5671 358.4C74.9804 358.173 75.2804 357.933 75.4671 357.68C75.6538 357.427 75.7471 357.2 75.7471 357C75.7471 356.827 75.6804 356.66 75.5471 356.5C75.4271 356.327 75.1938 356.147 74.8471 355.96C74.5138 355.773 74.0338 355.553 73.4071 355.3L74.4871 353.2C75.2338 353.64 75.8338 354.007 76.2871 354.3C76.7404 354.593 77.0871 354.853 77.3271 355.08C77.5671 355.307 77.7271 355.527 77.8071 355.74C77.9004 355.94 77.9471 356.173 77.9471 356.44C77.9471 356.88 77.8604 357.34 77.6871 357.82C77.5271 358.3 77.2671 358.76 76.9071 359.2C76.5471 359.653 76.0671 360.06 75.4671 360.42C74.8804 360.78 74.1604 361.067 73.3071 361.28C72.4671 361.493 71.4671 361.6 70.3071 361.6ZM79.4471 357C79.2071 357 78.9004 356.967 78.5271 356.9C78.1538 356.833 77.7538 356.733 77.3271 356.6C76.9004 356.467 76.4671 356.307 76.0271 356.12C75.6004 355.92 75.2071 355.693 74.8471 355.44L74.4871 353.2C75.0871 353.493 75.6204 353.733 76.0871 353.92C76.5671 354.107 77.0004 354.247 77.3871 354.34C77.7738 354.433 78.1271 354.5 78.4471 354.54C78.7671 354.58 79.0671 354.6 79.3471 354.6H79.5071V357H79.4471ZM68.6271 366.64L66.8471 364.82L68.5471 363.02L70.3271 364.82L68.6271 366.64ZM72.1071 366.64L70.3271 364.82L72.0071 363.02L73.7871 364.82L72.1071 366.64ZM90.578 357C89.9114 357 89.3114 356.98 88.778 356.94C88.2447 356.9 87.7514 356.833 87.298 356.74C86.8447 356.633 86.4114 356.487 85.998 356.3C85.598 356.113 85.198 355.873 84.798 355.58C84.398 355.273 83.978 354.9 83.538 354.46L81.218 352.16V349.06C81.6447 348.86 82.118 348.687 82.638 348.54C83.158 348.38 83.6914 348.253 84.238 348.16C84.7847 348.067 85.3114 348.02 85.818 348.02C86.6847 348.02 87.438 348.12 88.078 348.32C88.718 348.52 89.2114 348.84 89.558 349.28C89.918 349.707 90.098 350.267 90.098 350.96C90.098 351.4 90.018 351.84 89.858 352.28C89.698 352.707 89.4847 353.113 89.218 353.5C88.9514 353.873 88.6514 354.213 88.318 354.52C88.4914 354.547 88.6714 354.567 88.858 354.58C89.0447 354.593 89.238 354.6 89.438 354.6H91.438V357H90.578ZM79.498 357V354.6H81.578C81.9514 354.6 82.2847 354.587 82.578 354.56C82.8847 354.52 83.178 354.473 83.458 354.42C83.738 354.367 84.0314 354.3 84.338 354.22L85.978 356.06C85.258 356.353 84.4514 356.587 83.558 356.76C82.6647 356.92 81.7314 357 80.758 357H79.498ZM85.918 353.78C86.2914 353.54 86.6047 353.287 86.858 353.02C87.1114 352.753 87.3047 352.487 87.438 352.22C87.5714 351.953 87.638 351.7 87.638 351.46C87.638 351.26 87.578 351.087 87.458 350.94C87.338 350.78 87.1447 350.653 86.878 350.56C86.6247 350.467 86.2714 350.42 85.818 350.42C85.3647 350.42 84.8914 350.46 84.398 350.54C83.9047 350.607 83.458 350.707 83.058 350.84L85.078 352.94C85.238 353.1 85.3847 353.253 85.518 353.4C85.6647 353.547 85.798 353.673 85.918 353.78ZM79.498 354.6H79.698V357H79.498C79.098 357 78.898 356.593 78.898 355.78C78.898 354.993 79.098 354.6 79.498 354.6ZM91.4316 357V354.6H91.4916C91.745 354.6 91.9716 354.547 92.1716 354.44C92.3716 354.32 92.565 354.14 92.7516 353.9C92.9383 353.647 93.145 353.32 93.3716 352.92C93.625 352.44 93.9116 351.953 94.2316 351.46C94.5516 350.967 94.905 350.507 95.2916 350.08C95.6916 349.653 96.1316 349.313 96.6116 349.06C97.105 348.793 97.645 348.66 98.2316 348.66C99.045 348.66 99.745 348.867 100.332 349.28C100.918 349.693 101.378 350.267 101.712 351C102.045 351.733 102.238 352.58 102.292 353.54C102.345 354.5 102.238 355.533 101.972 356.64C101.478 356.88 100.958 357.06 100.412 357.18C99.8783 357.313 99.3383 357.38 98.7916 357.38C98.2583 357.393 97.7316 357.34 97.2116 357.22C96.6916 357.1 96.1983 356.92 95.7316 356.68C95.2783 356.427 94.865 356.113 94.4916 355.74C94.1183 355.353 93.7983 354.907 93.5316 354.4L95.0516 353.24C95.265 353.533 95.5383 353.8 95.8716 354.04C96.2183 354.267 96.605 354.467 97.0316 354.64C97.4716 354.8 97.945 354.913 98.4516 354.98C98.9716 355.047 99.5116 355.047 100.072 354.98C100.098 354.473 100.065 353.987 99.9716 353.52C99.8916 353.053 99.7583 352.64 99.5716 352.28C99.3983 351.907 99.1783 351.62 98.9116 351.42C98.645 351.207 98.3516 351.1 98.0316 351.1C97.8183 351.1 97.585 351.18 97.3316 351.34C97.0916 351.487 96.8183 351.773 96.5116 352.2C96.205 352.627 95.825 353.26 95.3716 354.1C95.185 354.447 94.9783 354.793 94.7516 355.14C94.5383 355.487 94.285 355.8 93.9916 356.08C93.7116 356.36 93.365 356.587 92.9516 356.76C92.5516 356.92 92.065 357 91.4916 357H91.4316ZM91.4316 354.6H91.6316V357H91.4316C91.0316 357 90.8316 356.593 90.8316 355.78C90.8316 354.993 91.0316 354.6 91.4316 354.6ZM108.739 357C108.059 357 107.485 356.92 107.019 356.76C106.565 356.6 106.199 356.373 105.919 356.08C105.652 355.787 105.459 355.433 105.339 355.02C105.219 354.593 105.159 354.127 105.159 353.62V342.2H107.619V352.88C107.619 353.187 107.639 353.453 107.679 353.68C107.732 353.893 107.812 354.067 107.919 354.2C108.039 354.333 108.205 354.433 108.419 354.5C108.645 354.567 108.939 354.6 109.299 354.6H110.059V357H108.739ZM124.604 357C123.764 357 123.058 356.913 122.484 356.74C121.924 356.553 121.464 356.273 121.104 355.9C120.758 355.513 120.464 355.013 120.224 354.4L121.884 353.62C122.031 353.847 122.211 354.033 122.424 354.18C122.638 354.327 122.918 354.433 123.264 354.5C123.624 354.567 124.071 354.6 124.604 354.6H125.284V357H124.604ZM110.064 354.6H110.264V357H110.064C109.664 357 109.464 356.593 109.464 355.78C109.464 354.993 109.664 354.6 110.064 354.6ZM110.064 357V354.6H110.604C111.844 354.6 112.898 354.56 113.764 354.48C114.644 354.4 115.391 354.287 116.004 354.14C116.631 353.993 117.178 353.82 117.644 353.62C118.124 353.407 118.584 353.18 119.024 352.94C119.144 352.873 119.258 352.813 119.364 352.76C119.471 352.693 119.578 352.633 119.684 352.58C119.804 352.527 119.911 352.473 120.004 352.42C119.511 352.22 119.031 352.007 118.564 351.78C118.098 351.553 117.644 351.34 117.204 351.14C116.778 350.94 116.358 350.78 115.944 350.66C115.531 350.527 115.124 350.46 114.724 350.46C114.324 350.46 113.918 350.567 113.504 350.78C113.091 350.993 112.691 351.427 112.304 352.08L110.664 351.24C111.051 350.44 111.478 349.807 111.944 349.34C112.424 348.873 112.924 348.54 113.444 348.34C113.978 348.127 114.518 348.02 115.064 348.02C115.731 348.02 116.358 348.133 116.944 348.36C117.544 348.587 118.124 348.867 118.684 349.2C119.244 349.533 119.791 349.867 120.324 350.2C120.858 350.52 121.391 350.793 121.924 351.02C122.458 351.247 122.998 351.36 123.544 351.36L123.524 353.46C123.164 353.5 122.711 353.64 122.164 353.88C121.618 354.107 120.991 354.407 120.284 354.78C119.804 355.033 119.284 355.293 118.724 355.56C118.164 355.813 117.511 356.053 116.764 356.28C116.018 356.493 115.131 356.667 114.104 356.8C113.078 356.933 111.864 357 110.464 357H110.064ZM110.064 354.6H110.264V357H110.064C109.664 357 109.464 356.593 109.464 355.78C109.464 354.993 109.664 354.6 110.064 354.6ZM116.424 362.04L114.624 360.22L116.324 358.42L118.104 360.22L116.424 362.04ZM125.279 357V354.6H127.599V342.2H130.059V357H125.279ZM125.279 354.6H125.479V357H125.279C124.879 357 124.679 356.593 124.679 355.78C124.679 354.993 124.879 354.6 125.279 354.6ZM133.108 342.2H135.568V357H133.108V342.2ZM159.775 354.6H162.175V357H159.775V354.6ZM148.855 357C147.095 357 145.761 356.64 144.855 355.92C143.948 355.2 143.495 354.2 143.495 352.92C143.495 352.333 143.595 351.68 143.795 350.96C143.995 350.227 144.341 349.427 144.835 348.56L146.695 349.4C146.415 350.053 146.221 350.607 146.115 351.06C146.008 351.513 145.955 351.927 145.955 352.3C145.955 352.9 146.101 353.367 146.395 353.7C146.688 354.033 147.095 354.267 147.615 354.4C148.135 354.533 148.728 354.6 149.395 354.6H159.035L158.955 357H148.855ZM157.915 357V342.2H160.375V357H157.915ZM149.875 350.98V349.4H150.595C150.515 349.267 150.448 349.12 150.395 348.96C150.341 348.787 150.315 348.613 150.315 348.44C150.315 347.787 150.535 347.26 150.975 346.86C151.428 346.46 152.015 346.26 152.735 346.26C152.935 346.26 153.128 346.28 153.315 346.32C153.515 346.36 153.701 346.407 153.875 346.46C154.061 346.513 154.235 346.58 154.395 346.66L153.775 348.06C153.615 347.98 153.461 347.927 153.315 347.9C153.168 347.86 153.015 347.84 152.855 347.84C152.548 347.84 152.315 347.913 152.155 348.06C152.008 348.193 151.935 348.367 151.935 348.58C151.935 348.713 151.975 348.84 152.055 348.96C152.135 349.08 152.275 349.187 152.475 349.28C152.688 349.36 152.981 349.4 153.355 349.4H154.635V350.98H149.875ZM166.354 354.6H168.754V357H166.354V354.6ZM162.174 357V354.6H164.494V342.2H166.954V357H162.174ZM162.174 354.6H162.374V357H162.174C161.774 357 161.574 356.593 161.574 355.78C161.574 354.993 161.774 354.6 162.174 354.6ZM168.756 357V354.6H171.316C171.396 354.387 171.483 354.073 171.576 353.66C171.669 353.233 171.749 352.787 171.816 352.32C171.896 351.853 171.943 351.44 171.956 351.08L174.816 350.08C174.616 351.013 174.403 351.873 174.176 352.66C173.949 353.433 173.683 354.173 173.376 354.88C173.069 355.573 172.676 356.28 172.196 357H168.756ZM176.256 357C175.469 357 174.783 356.927 174.196 356.78C173.623 356.633 173.123 356.453 172.696 356.24C172.269 356.013 171.889 355.787 171.556 355.56L172.856 354C173.096 354.12 173.363 354.227 173.656 354.32C173.949 354.413 174.263 354.487 174.596 354.54C174.929 354.58 175.283 354.6 175.656 354.6H176.376V357H176.256ZM168.756 354.6H168.956V357H168.756C168.356 357 168.156 356.593 168.156 355.78C168.156 354.993 168.356 354.6 168.756 354.6ZM170.776 362.04L168.996 360.22L170.696 358.42L172.476 360.22L170.776 362.04ZM174.256 362.04L172.476 360.22L174.156 358.42L175.936 360.22L174.256 362.04ZM176.373 357V354.6H176.473C176.686 354.6 176.873 354.567 177.033 354.5C177.206 354.433 177.373 354.313 177.533 354.14C177.693 353.967 177.873 353.733 178.073 353.44C178.273 353.133 178.513 352.74 178.793 352.26C179.193 351.593 179.573 351.027 179.933 350.56C180.306 350.093 180.666 349.727 181.013 349.46C181.373 349.18 181.726 348.98 182.073 348.86C182.433 348.727 182.8 348.66 183.173 348.66C183.72 348.66 184.213 348.787 184.653 349.04C185.093 349.293 185.5 349.707 185.873 350.28C186.26 350.853 186.646 351.64 187.033 352.64C187.26 353.24 187.473 353.68 187.673 353.96C187.886 354.24 188.113 354.42 188.353 354.5C188.593 354.567 188.886 354.6 189.233 354.6H189.333V357H188.973C188.386 357 187.88 356.927 187.453 356.78C187.026 356.62 186.653 356.393 186.333 356.1C186.013 355.793 185.74 355.447 185.513 355.06C185.286 354.66 185.086 354.22 184.913 353.74C184.646 353.033 184.406 352.493 184.193 352.12C183.993 351.733 183.8 351.467 183.613 351.32C183.426 351.173 183.226 351.1 183.013 351.1C182.826 351.1 182.613 351.173 182.373 351.32C182.146 351.467 181.893 351.713 181.613 352.06C181.333 352.393 181.02 352.853 180.673 353.44C180.326 354.027 180.013 354.527 179.733 354.94C179.466 355.353 179.213 355.693 178.973 355.96C178.746 356.227 178.513 356.44 178.273 356.6C178.033 356.747 177.766 356.853 177.473 356.92C177.193 356.973 176.866 357 176.493 357H176.373ZM187.053 356.08C186.64 356.573 186.16 356.913 185.613 357.1C185.08 357.3 184.506 357.387 183.893 357.36C183.293 357.333 182.693 357.213 182.093 357C181.493 356.773 180.933 356.487 180.413 356.14C179.893 355.78 179.44 355.393 179.053 354.98L180.353 353.5C180.646 353.74 181 353.973 181.413 354.2C181.84 354.427 182.3 354.613 182.793 354.76C183.3 354.907 183.826 354.993 184.373 355.02C184.933 355.047 185.493 354.98 186.053 354.82L187.053 356.08ZM176.373 354.6H176.573V357H176.373C175.973 357 175.773 356.593 175.773 355.78C175.773 354.993 175.973 354.6 176.373 354.6ZM189.342 357V354.6H192.902C192.862 353.84 192.702 353.113 192.422 352.42C192.142 351.713 191.768 350.987 191.302 350.24L193.482 348.04C193.868 348.853 194.208 349.713 194.502 350.62C194.808 351.527 194.975 352.507 195.002 353.56C195.028 354.6 194.822 355.747 194.382 357H189.342ZM189.342 354.6H189.542V357H189.342C188.942 357 188.742 356.593 188.742 355.78C188.742 354.993 188.942 354.6 189.342 354.6ZM190.882 362.04L189.102 360.22L190.802 358.42L192.582 360.22L190.882 362.04ZM194.362 362.04L192.582 360.22L194.262 358.42L196.042 360.22L194.362 362.04ZM197.834 342.2H200.294V357H197.834V342.2ZM212.761 356.3C211.908 356.3 211.135 356.173 210.441 355.92C209.761 355.667 209.221 355.307 208.821 354.84C208.421 354.36 208.221 353.787 208.221 353.12C208.221 352.493 208.368 351.94 208.661 351.46C208.968 350.967 209.415 350.52 210.001 350.12C210.588 349.707 211.315 349.3 212.181 348.9C213.048 348.487 214.055 348.053 215.201 347.6L215.621 350.1C214.595 350.433 213.761 350.74 213.121 351.02C212.481 351.287 211.981 351.54 211.621 351.78C211.275 352.007 211.028 352.22 210.881 352.42C210.748 352.62 210.681 352.807 210.681 352.98C210.681 353.287 210.841 353.52 211.161 353.68C211.495 353.84 212.015 353.92 212.721 353.92C212.921 353.92 213.148 353.913 213.401 353.9C213.655 353.873 213.935 353.833 214.241 353.78C214.548 353.727 214.875 353.653 215.221 353.56L215.781 355.66C215.275 355.887 214.795 356.053 214.341 356.16C213.888 356.253 213.361 356.3 212.761 356.3ZM217.781 357C217.035 357 216.428 356.907 215.961 356.72C215.495 356.52 215.135 356.26 214.881 355.94C214.628 355.62 214.448 355.253 214.341 354.84C214.248 354.427 214.201 354.013 214.201 353.6V346.44H216.661V352.96C216.661 353.533 216.775 353.953 217.001 354.22C217.241 354.473 217.715 354.6 218.421 354.6H219.141V357H217.781ZM211.261 345.32L209.481 343.52L211.181 341.7L212.961 343.52L211.261 345.32ZM214.741 345.32L212.961 343.52L214.641 341.7L216.421 343.52L214.741 345.32ZM230.226 357C229.56 357 228.96 356.98 228.426 356.94C227.893 356.9 227.4 356.833 226.946 356.74C226.493 356.633 226.06 356.487 225.646 356.3C225.246 356.113 224.846 355.873 224.446 355.58C224.046 355.273 223.626 354.9 223.186 354.46L220.866 352.16V349.06C221.293 348.86 221.766 348.687 222.286 348.54C222.806 348.38 223.34 348.253 223.886 348.16C224.433 348.067 224.96 348.02 225.466 348.02C226.333 348.02 227.086 348.12 227.726 348.32C228.366 348.52 228.86 348.84 229.206 349.28C229.566 349.707 229.746 350.267 229.746 350.96C229.746 351.4 229.666 351.84 229.506 352.28C229.346 352.707 229.133 353.113 228.866 353.5C228.6 353.873 228.3 354.213 227.966 354.52C228.14 354.547 228.32 354.567 228.506 354.58C228.693 354.593 228.886 354.6 229.086 354.6H231.086V357H230.226ZM219.146 357V354.6H221.226C221.6 354.6 221.933 354.587 222.226 354.56C222.533 354.52 222.826 354.473 223.106 354.42C223.386 354.367 223.68 354.3 223.986 354.22L225.626 356.06C224.906 356.353 224.1 356.587 223.206 356.76C222.313 356.92 221.38 357 220.406 357H219.146ZM225.566 353.78C225.94 353.54 226.253 353.287 226.506 353.02C226.76 352.753 226.953 352.487 227.086 352.22C227.22 351.953 227.286 351.7 227.286 351.46C227.286 351.26 227.226 351.087 227.106 350.94C226.986 350.78 226.793 350.653 226.526 350.56C226.273 350.467 225.92 350.42 225.466 350.42C225.013 350.42 224.54 350.46 224.046 350.54C223.553 350.607 223.106 350.707 222.706 350.84L224.726 352.94C224.886 353.1 225.033 353.253 225.166 353.4C225.313 353.547 225.446 353.673 225.566 353.78ZM219.146 354.6H219.346V357H219.146C218.746 357 218.546 356.593 218.546 355.78C218.546 354.993 218.746 354.6 219.146 354.6ZM231.08 357V354.6H231.62C232.86 354.6 233.913 354.56 234.78 354.48C235.66 354.4 236.407 354.287 237.02 354.14C237.647 353.993 238.193 353.82 238.66 353.62C239.14 353.407 239.6 353.18 240.04 352.94C240.16 352.873 240.273 352.813 240.38 352.76C240.487 352.693 240.593 352.633 240.7 352.58C240.82 352.527 240.927 352.473 241.02 352.42C240.527 352.22 240.047 352.007 239.58 351.78C239.113 351.553 238.66 351.34 238.22 351.14C237.793 350.94 237.373 350.78 236.96 350.66C236.547 350.527 236.14 350.46 235.74 350.46C235.34 350.46 234.933 350.567 234.52 350.78C234.107 350.993 233.707 351.427 233.32 352.08L231.68 351.24C232.067 350.44 232.493 349.807 232.96 349.34C233.44 348.873 233.94 348.54 234.46 348.34C234.993 348.127 235.533 348.02 236.08 348.02C236.747 348.02 237.373 348.133 237.96 348.36C238.56 348.587 239.14 348.867 239.7 349.2C240.26 349.533 240.807 349.867 241.34 350.2C241.873 350.52 242.407 350.793 242.94 351.02C243.473 351.247 244.013 351.36 244.56 351.36L244.54 353.46C244.18 353.5 243.727 353.64 243.18 353.88C242.633 354.107 242.007 354.407 241.3 354.78C240.82 355.033 240.3 355.293 239.74 355.56C239.18 355.813 238.527 356.053 237.78 356.28C237.033 356.493 236.147 356.667 235.12 356.8C234.093 356.933 232.88 357 231.48 357H231.08ZM231.08 354.6H231.28V357H231.08C230.68 357 230.48 356.593 230.48 355.78C230.48 354.993 230.68 354.6 231.08 354.6ZM237.44 362.04L235.64 360.22L237.34 358.42L239.12 360.22L237.44 362.04ZM247.209 342.2H249.669V357H247.209V342.2ZM253.317 361.78C252.743 361.78 252.117 361.667 251.437 361.44C250.757 361.213 250.123 360.867 249.537 360.4L250.377 358.78C250.83 358.953 251.277 359.093 251.717 359.2C252.157 359.307 252.55 359.36 252.897 359.36C253.67 359.36 254.35 359.193 254.937 358.86C255.523 358.54 255.983 358.093 256.317 357.52C256.65 356.947 256.817 356.293 256.817 355.56C256.817 355.213 256.763 354.913 256.657 354.66C256.563 354.393 256.43 354.14 256.257 353.9C256.097 353.647 255.917 353.373 255.717 353.08L259.017 354.76C259.017 354.893 259.017 355.027 259.017 355.16C259.017 355.293 259.017 355.427 259.017 355.56C259.017 356.067 258.943 356.607 258.797 357.18C258.65 357.753 258.43 358.307 258.137 358.84C257.857 359.387 257.49 359.88 257.037 360.32C256.583 360.76 256.05 361.113 255.437 361.38C254.823 361.647 254.117 361.78 253.317 361.78ZM260.897 357C260.43 357 260.003 356.953 259.617 356.86C259.243 356.767 258.883 356.62 258.537 356.42C258.203 356.22 257.883 355.96 257.577 355.64C257.283 355.32 256.99 354.933 256.697 354.48L254.217 350.84L256.057 348.56L258.697 353.06C258.923 353.447 259.13 353.753 259.317 353.98C259.503 354.207 259.717 354.367 259.957 354.46C260.197 354.553 260.51 354.6 260.897 354.6H261.097V357H260.897ZM261.1 357V354.6H261.16C261.413 354.6 261.64 354.547 261.84 354.44C262.04 354.32 262.233 354.14 262.42 353.9C262.606 353.647 262.813 353.32 263.04 352.92C263.293 352.44 263.58 351.953 263.9 351.46C264.22 350.967 264.573 350.507 264.96 350.08C265.36 349.653 265.8 349.313 266.28 349.06C266.773 348.793 267.313 348.66 267.9 348.66C268.713 348.66 269.413 348.867 270 349.28C270.586 349.693 271.046 350.267 271.38 351C271.713 351.733 271.906 352.58 271.96 353.54C272.013 354.5 271.906 355.533 271.64 356.64C271.146 356.88 270.626 357.06 270.08 357.18C269.546 357.313 269.006 357.38 268.46 357.38C267.926 357.393 267.4 357.34 266.88 357.22C266.36 357.1 265.866 356.92 265.4 356.68C264.946 356.427 264.533 356.113 264.16 355.74C263.786 355.353 263.466 354.907 263.2 354.4L264.72 353.24C264.933 353.533 265.206 353.8 265.54 354.04C265.886 354.267 266.273 354.467 266.7 354.64C267.14 354.8 267.613 354.913 268.12 354.98C268.64 355.047 269.18 355.047 269.74 354.98C269.766 354.473 269.733 353.987 269.64 353.52C269.56 353.053 269.426 352.64 269.24 352.28C269.066 351.907 268.846 351.62 268.58 351.42C268.313 351.207 268.02 351.1 267.7 351.1C267.486 351.1 267.253 351.18 267 351.34C266.76 351.487 266.486 351.773 266.18 352.2C265.873 352.627 265.493 353.26 265.04 354.1C264.853 354.447 264.646 354.793 264.42 355.14C264.206 355.487 263.953 355.8 263.66 356.08C263.38 356.36 263.033 356.587 262.62 356.76C262.22 356.92 261.733 357 261.16 357H261.1ZM261.1 354.6H261.3V357H261.1C260.7 357 260.5 356.593 260.5 355.78C260.5 354.993 260.7 354.6 261.1 354.6ZM279.686 357V354.96H280.786C280.666 354.76 280.566 354.54 280.486 354.3C280.406 354.047 280.366 353.753 280.366 353.42C280.366 352.793 280.499 352.26 280.766 351.82C281.033 351.367 281.399 351.02 281.866 350.78C282.346 350.527 282.873 350.4 283.446 350.4C283.873 350.4 284.279 350.447 284.666 350.54C285.066 350.62 285.419 350.74 285.726 350.9L284.946 352.68C284.719 352.587 284.499 352.527 284.286 352.5C284.086 352.46 283.893 352.44 283.706 352.44C283.306 352.44 282.999 352.56 282.786 352.8C282.573 353.04 282.466 353.32 282.466 353.64C282.466 353.893 282.526 354.12 282.646 354.32C282.779 354.507 282.986 354.66 283.266 354.78C283.559 354.9 283.933 354.96 284.386 354.96H286.046V357H279.686ZM292.059 357C291.379 357 290.806 356.92 290.339 356.76C289.886 356.6 289.519 356.373 289.239 356.08C288.972 355.787 288.779 355.433 288.659 355.02C288.539 354.593 288.479 354.127 288.479 353.62V342.2H290.939V352.88C290.939 353.187 290.959 353.453 290.999 353.68C291.052 353.893 291.132 354.067 291.239 354.2C291.359 354.333 291.526 354.433 291.739 354.5C291.966 354.567 292.259 354.6 292.619 354.6H293.379V357H292.059ZM293.385 357V354.6H293.925C295.165 354.6 296.218 354.56 297.085 354.48C297.965 354.4 298.711 354.287 299.325 354.14C299.951 353.993 300.498 353.82 300.965 353.62C301.445 353.407 301.905 353.18 302.345 352.94C302.465 352.873 302.578 352.813 302.685 352.76C302.791 352.693 302.898 352.633 303.005 352.58C303.125 352.527 303.231 352.473 303.325 352.42C302.831 352.22 302.351 352.007 301.885 351.78C301.418 351.553 300.965 351.34 300.525 351.14C300.098 350.94 299.678 350.78 299.265 350.66C298.851 350.527 298.445 350.46 298.045 350.46C297.645 350.46 297.238 350.567 296.825 350.78C296.411 350.993 296.011 351.427 295.625 352.08L293.985 351.24C294.371 350.44 294.798 349.807 295.265 349.34C295.745 348.873 296.245 348.54 296.765 348.34C297.298 348.127 297.838 348.02 298.385 348.02C299.051 348.02 299.678 348.133 300.265 348.36C300.865 348.587 301.445 348.867 302.005 349.2C302.565 349.533 303.111 349.867 303.645 350.2C304.178 350.52 304.711 350.793 305.245 351.02C305.778 351.247 306.318 351.36 306.865 351.36L306.845 353.46C306.485 353.5 306.031 353.64 305.485 353.88C304.938 354.107 304.311 354.407 303.605 354.78C303.125 355.033 302.605 355.293 302.045 355.56C301.485 355.813 300.831 356.053 300.085 356.28C299.338 356.493 298.451 356.667 297.425 356.8C296.398 356.933 295.185 357 293.785 357H293.385ZM293.385 354.6H293.585V357H293.385C292.985 357 292.785 356.593 292.785 355.78C292.785 354.993 292.985 354.6 293.385 354.6ZM299.745 362.04L297.945 360.22L299.645 358.42L301.425 360.22L299.745 362.04ZM310.094 361.78C309.521 361.78 308.894 361.667 308.214 361.44C307.534 361.213 306.901 360.867 306.314 360.4L307.154 358.78C307.607 358.953 308.054 359.093 308.494 359.2C308.934 359.307 309.327 359.36 309.674 359.36C310.447 359.36 311.127 359.193 311.714 358.86C312.301 358.54 312.761 358.093 313.094 357.52C313.427 356.947 313.594 356.293 313.594 355.56C313.594 355.213 313.541 354.913 313.434 354.66C313.341 354.393 313.207 354.14 313.034 353.9C312.874 353.647 312.694 353.373 312.494 353.08L315.794 354.76C315.794 354.893 315.794 355.027 315.794 355.16C315.794 355.293 315.794 355.427 315.794 355.56C315.794 356.067 315.721 356.607 315.574 357.18C315.427 357.753 315.207 358.307 314.914 358.84C314.634 359.387 314.267 359.88 313.814 360.32C313.361 360.76 312.827 361.113 312.214 361.38C311.601 361.647 310.894 361.78 310.094 361.78ZM317.674 357C317.207 357 316.781 356.953 316.394 356.86C316.021 356.767 315.661 356.62 315.314 356.42C314.981 356.22 314.661 355.96 314.354 355.64C314.061 355.32 313.767 354.933 313.474 354.48L310.994 350.84L312.834 348.56L315.474 353.06C315.701 353.447 315.907 353.753 316.094 353.98C316.281 354.207 316.494 354.367 316.734 354.46C316.974 354.553 317.287 354.6 317.674 354.6H317.874V357H317.674ZM317.877 357V354.6H320.197V342.2H322.657V357H317.877ZM317.877 354.6H318.077V357H317.877C317.477 357 317.277 356.593 317.277 355.78C317.277 354.993 317.477 354.6 317.877 354.6ZM325.706 342.2H328.166V357H325.706V342.2ZM152.206 379.6H154.606V382H152.206V379.6ZM141.286 382C139.526 382 138.193 381.64 137.286 380.92C136.38 380.2 135.926 379.2 135.926 377.92C135.926 377.333 136.026 376.68 136.226 375.96C136.426 375.227 136.773 374.427 137.266 373.56L139.126 374.4C138.846 375.053 138.653 375.607 138.546 376.06C138.44 376.513 138.386 376.927 138.386 377.3C138.386 377.9 138.533 378.367 138.826 378.7C139.12 379.033 139.526 379.267 140.046 379.4C140.566 379.533 141.16 379.6 141.826 379.6H151.466L151.386 382H141.286ZM150.346 382V367.2H152.806V382H150.346ZM142.306 375.98V374.4H143.026C142.946 374.267 142.88 374.12 142.826 373.96C142.773 373.787 142.746 373.613 142.746 373.44C142.746 372.787 142.966 372.26 143.406 371.86C143.86 371.46 144.446 371.26 145.166 371.26C145.366 371.26 145.56 371.28 145.746 371.32C145.946 371.36 146.133 371.407 146.306 371.46C146.493 371.513 146.666 371.58 146.826 371.66L146.206 373.06C146.046 372.98 145.893 372.927 145.746 372.9C145.6 372.86 145.446 372.84 145.286 372.84C144.98 372.84 144.746 372.913 144.586 373.06C144.44 373.193 144.366 373.367 144.366 373.58C144.366 373.713 144.406 373.84 144.486 373.96C144.566 374.08 144.706 374.187 144.906 374.28C145.12 374.36 145.413 374.4 145.786 374.4H147.066V375.98H142.306ZM154.605 382V379.6H158.165C158.125 378.84 157.965 378.113 157.685 377.42C157.405 376.713 157.032 375.987 156.565 375.24L158.745 373.04C159.132 373.853 159.472 374.713 159.765 375.62C160.072 376.527 160.239 377.507 160.265 378.56C160.292 379.6 160.085 380.747 159.645 382H154.605ZM154.605 379.6H154.805V382H154.605C154.205 382 154.005 381.593 154.005 380.78C154.005 379.993 154.205 379.6 154.605 379.6ZM157.845 387.04L156.045 385.22L157.745 383.42L159.525 385.22L157.845 387.04ZM166.678 382C165.998 382 165.425 381.92 164.958 381.76C164.505 381.6 164.138 381.373 163.858 381.08C163.591 380.787 163.398 380.433 163.278 380.02C163.158 379.593 163.098 379.127 163.098 378.62V367.2H165.558V377.88C165.558 378.187 165.578 378.453 165.618 378.68C165.671 378.893 165.751 379.067 165.858 379.2C165.978 379.333 166.145 379.433 166.358 379.5C166.585 379.567 166.878 379.6 167.238 379.6H167.998V382H166.678ZM181.364 382C180.577 382 179.891 381.927 179.304 381.78C178.731 381.633 178.231 381.453 177.804 381.24C177.377 381.013 176.997 380.787 176.664 380.56L177.964 379C178.697 379.4 179.631 379.6 180.764 379.6H183.304C183.211 379.107 183.111 378.673 183.004 378.3C182.911 377.927 182.797 377.547 182.664 377.16C182.531 376.76 182.357 376.313 182.144 375.82L184.904 373.96C185.024 374.787 185.124 375.64 185.204 376.52C185.284 377.387 185.297 378.28 185.244 379.2C185.191 380.107 185.024 381.04 184.744 382H181.364ZM168.004 382V379.6H170.424C170.544 379.333 170.644 379.007 170.724 378.62C170.804 378.233 170.864 377.827 170.904 377.4C170.957 376.96 170.991 376.54 171.004 376.14L173.884 375.14C173.724 375.913 173.564 376.607 173.404 377.22C173.244 377.833 173.057 378.4 172.844 378.92C172.644 379.44 172.411 379.947 172.144 380.44C171.877 380.933 171.557 381.453 171.184 382H168.004ZM174.684 382C173.871 382 173.164 381.927 172.564 381.78C171.964 381.633 171.457 381.453 171.044 381.24C170.631 381.013 170.277 380.807 169.984 380.62L171.124 378.92C171.484 379.133 171.911 379.3 172.404 379.42C172.911 379.54 173.457 379.6 174.044 379.6H175.924C176.044 379.36 176.144 379.047 176.224 378.66C176.304 378.273 176.371 377.86 176.424 377.42C176.477 376.967 176.504 376.54 176.504 376.14L179.384 375.14C179.224 375.913 179.064 376.607 178.904 377.22C178.744 377.833 178.557 378.4 178.344 378.92C178.144 379.44 177.911 379.947 177.644 380.44C177.377 380.933 177.064 381.453 176.704 382H174.684ZM187.184 382C186.571 382 186.017 381.953 185.524 381.86C185.044 381.753 184.611 381.627 184.224 381.48C183.837 381.32 183.491 381.153 183.184 380.98L184.124 379.14C184.297 379.22 184.477 379.287 184.664 379.34C184.864 379.393 185.064 379.44 185.264 379.48C185.477 379.52 185.697 379.553 185.924 379.58C186.151 379.593 186.384 379.6 186.624 379.6H187.344V382H187.184ZM168.004 379.6H168.204V382H168.004C167.604 382 167.404 381.593 167.404 380.78C167.404 379.993 167.604 379.6 168.004 379.6ZM187.34 382V379.6H187.88C189.12 379.6 190.173 379.56 191.04 379.48C191.92 379.4 192.667 379.287 193.28 379.14C193.907 378.993 194.453 378.82 194.92 378.62C195.4 378.407 195.86 378.18 196.3 377.94C196.42 377.873 196.533 377.813 196.64 377.76C196.747 377.693 196.853 377.633 196.96 377.58C197.08 377.527 197.187 377.473 197.28 377.42C196.787 377.22 196.307 377.007 195.84 376.78C195.373 376.553 194.92 376.34 194.48 376.14C194.053 375.94 193.633 375.78 193.22 375.66C192.807 375.527 192.4 375.46 192 375.46C191.6 375.46 191.193 375.567 190.78 375.78C190.367 375.993 189.967 376.427 189.58 377.08L187.94 376.24C188.327 375.44 188.753 374.807 189.22 374.34C189.7 373.873 190.2 373.54 190.72 373.34C191.253 373.127 191.793 373.02 192.34 373.02C193.007 373.02 193.633 373.133 194.22 373.36C194.82 373.587 195.4 373.867 195.96 374.2C196.52 374.533 197.067 374.867 197.6 375.2C198.133 375.52 198.667 375.793 199.2 376.02C199.733 376.247 200.273 376.36 200.82 376.36L200.8 378.46C200.44 378.5 199.987 378.64 199.44 378.88C198.893 379.107 198.267 379.407 197.56 379.78C197.08 380.033 196.56 380.293 196 380.56C195.44 380.813 194.787 381.053 194.04 381.28C193.293 381.493 192.407 381.667 191.38 381.8C190.353 381.933 189.14 382 187.74 382H187.34ZM187.34 379.6H187.54V382H187.34C186.94 382 186.74 381.593 186.74 380.78C186.74 379.993 186.94 379.6 187.34 379.6ZM208.969 382L208.529 379.6H214.169C214.795 379.6 215.249 379.54 215.529 379.42C215.809 379.287 216.015 379.12 216.149 378.92L216.909 380.9C216.815 381.18 216.622 381.4 216.329 381.56C216.049 381.707 215.715 381.82 215.329 381.9C214.942 381.967 214.555 382 214.169 382H208.969ZM211.749 374.44L213.609 372.06L217.109 378.2C217.322 378.56 217.515 378.847 217.689 379.06C217.875 379.26 218.069 379.4 218.269 379.48C218.482 379.56 218.735 379.6 219.029 379.6H219.229V382H219.029C218.615 382 218.235 381.96 217.889 381.88C217.542 381.8 217.209 381.667 216.889 381.48C216.582 381.28 216.275 381.02 215.969 380.7C215.662 380.38 215.349 379.973 215.029 379.48L211.749 374.44ZM219.234 382V379.6H221.794C221.874 379.387 221.961 379.073 222.054 378.66C222.148 378.233 222.228 377.787 222.294 377.32C222.374 376.853 222.421 376.44 222.434 376.08L225.294 375.08C225.094 376.013 224.881 376.873 224.654 377.66C224.428 378.433 224.161 379.173 223.854 379.88C223.548 380.573 223.154 381.28 222.674 382H219.234ZM226.734 382C225.948 382 225.261 381.927 224.674 381.78C224.101 381.633 223.601 381.453 223.174 381.24C222.748 381.013 222.368 380.787 222.034 380.56L223.334 379C223.574 379.12 223.841 379.227 224.134 379.32C224.428 379.413 224.741 379.487 225.074 379.54C225.408 379.58 225.761 379.6 226.134 379.6H226.854V382H226.734ZM219.234 379.6H219.434V382H219.234C218.834 382 218.634 381.593 218.634 380.78C218.634 379.993 218.834 379.6 219.234 379.6ZM221.254 387.04L219.474 385.22L221.174 383.42L222.954 385.22L221.254 387.04ZM224.734 387.04L222.954 385.22L224.634 383.42L226.414 385.22L224.734 387.04ZM228.152 371.78L233.992 366.92L235.592 368.8L229.672 373.72L229.992 372.64C231.632 373.107 232.892 373.787 233.772 374.68C234.665 375.56 235.245 376.62 235.512 377.86C235.792 379.087 235.812 380.467 235.572 382H226.852V379.6H233.492C233.385 378.813 233.152 378.093 232.792 377.44C232.432 376.773 231.878 376.2 231.132 375.72C230.398 375.227 229.405 374.833 228.152 374.54V371.78ZM226.852 379.6H227.052V382H226.852C226.452 382 226.252 381.593 226.252 380.78C226.252 379.993 226.452 379.6 226.852 379.6ZM241.6 382C240.92 382 240.347 381.92 239.88 381.76C239.427 381.6 239.06 381.373 238.78 381.08C238.513 380.787 238.32 380.433 238.2 380.02C238.08 379.593 238.02 379.127 238.02 378.62V367.2H240.48V377.88C240.48 378.187 240.5 378.453 240.54 378.68C240.593 378.893 240.673 379.067 240.78 379.2C240.9 379.333 241.067 379.433 241.28 379.5C241.507 379.567 241.8 379.6 242.16 379.6H242.92V382H241.6ZM237.22 365.8V364.48H237.82C237.74 364.373 237.68 364.253 237.64 364.12C237.6 363.973 237.58 363.827 237.58 363.68C237.58 363.147 237.767 362.713 238.14 362.38C238.513 362.047 239 361.88 239.6 361.88C239.853 361.88 240.1 361.907 240.34 361.96C240.58 362.013 240.793 362.093 240.98 362.2L240.48 363.36C240.347 363.307 240.213 363.267 240.08 363.24C239.96 363.213 239.833 363.2 239.7 363.2C239.447 363.2 239.253 363.26 239.12 363.38C239 363.487 238.94 363.627 238.94 363.8C238.94 363.96 239.02 364.113 239.18 364.26C239.34 364.407 239.653 364.48 240.12 364.48H241.2V365.8H237.22ZM242.926 382V379.6H245.906C245.986 379.387 246.072 379.073 246.166 378.66C246.259 378.233 246.339 377.787 246.406 377.32C246.486 376.853 246.532 376.44 246.546 376.08L249.406 375.08C249.206 376.013 248.992 376.873 248.766 377.66C248.539 378.433 248.272 379.173 247.966 379.88C247.659 380.573 247.266 381.28 246.786 382H242.926ZM250.746 382C249.959 382 249.272 381.927 248.686 381.78C248.112 381.633 247.612 381.453 247.186 381.24C246.772 381.013 246.399 380.787 246.066 380.56L247.346 379C247.599 379.12 247.866 379.227 248.146 379.32C248.439 379.413 248.752 379.487 249.086 379.54C249.432 379.58 249.792 379.6 250.166 379.6H251.286V382H250.746ZM242.926 379.6H243.126V382H242.926C242.526 382 242.326 381.593 242.326 380.78C242.326 379.993 242.526 379.6 242.926 379.6ZM246.306 373.02L244.526 371.22L246.226 369.4L248.006 371.22L246.306 373.02ZM249.786 373.02L248.006 371.22L249.686 369.4L251.466 371.22L249.786 373.02ZM251.285 382V379.6H253.605V367.2H256.065V382H251.285ZM251.285 379.6H251.485V382H251.285C250.885 382 250.685 381.593 250.685 380.78C250.685 379.993 250.885 379.6 251.285 379.6Z" fill="#D3D6DC"/>
<rect x="40" y="544" width="313" height="59" rx="10" fill="#5B6FFB"/>
<path d="M158.433 580.76C157.825 580.76 157.269 580.7 156.765 580.58C156.269 580.46 155.837 580.272 155.469 580.016C155.109 579.76 154.829 579.428 154.629 579.02C154.437 578.62 154.341 578.136 154.341 577.568C154.341 577.24 154.385 576.852 154.473 576.404C154.569 575.956 154.717 575.524 154.917 575.108L156.573 575.624C156.477 575.904 156.401 576.164 156.345 576.404C156.297 576.644 156.273 576.88 156.273 577.112C156.273 577.392 156.321 577.644 156.417 577.868C156.513 578.084 156.661 578.268 156.861 578.42C157.061 578.572 157.313 578.684 157.617 578.756C157.921 578.836 158.281 578.876 158.697 578.876C159.273 578.876 159.745 578.84 160.113 578.768C160.481 578.704 160.769 578.616 160.977 578.504C161.185 578.392 161.329 578.272 161.409 578.144C161.489 578.016 161.529 577.892 161.529 577.772C161.529 577.7 161.505 577.636 161.457 577.58C161.409 577.516 161.305 577.436 161.145 577.34C160.985 577.244 160.737 577.116 160.401 576.956L161.181 575.324C161.653 575.62 162.025 575.868 162.297 576.068C162.577 576.268 162.785 576.44 162.921 576.584C163.057 576.728 163.145 576.868 163.185 577.004C163.233 577.132 163.257 577.276 163.257 577.436C163.257 577.7 163.213 577.984 163.125 578.288C163.037 578.592 162.889 578.888 162.681 579.176C162.473 579.472 162.185 579.736 161.817 579.968C161.449 580.208 160.989 580.4 160.437 580.544C159.885 580.688 159.217 580.76 158.433 580.76ZM163.881 578C163.793 578 163.645 577.98 163.437 577.94C163.229 577.9 162.993 577.84 162.729 577.76C162.465 577.68 162.197 577.584 161.925 577.472C161.653 577.352 161.409 577.216 161.193 577.064L161.181 575.324C161.541 575.5 161.857 575.644 162.129 575.756C162.409 575.86 162.649 575.94 162.849 575.996C163.057 576.044 163.229 576.076 163.365 576.092C163.509 576.108 163.625 576.116 163.713 576.116H163.929V578H163.881ZM157.425 583.988L156.165 582.704L157.353 581.432L158.613 582.704L157.425 583.988ZM159.537 583.988L158.277 582.704L159.477 581.432L160.737 582.704L159.537 583.988ZM163.934 578V576.116H166.046C165.982 575.836 165.858 575.524 165.674 575.18C165.49 574.836 165.258 574.488 164.978 574.136L166.706 572.372C166.946 572.828 167.154 573.328 167.33 573.872C167.506 574.416 167.594 575.028 167.594 575.708C167.602 576.38 167.458 577.144 167.162 578H163.934ZM163.934 576.116H164.054V578H163.934C163.694 578 163.574 577.688 163.574 577.064C163.574 576.432 163.694 576.116 163.934 576.116ZM165.974 581.228L164.702 579.944L165.914 578.672L167.174 579.944L165.974 581.228ZM171.437 578C171.037 578 170.693 577.96 170.405 577.88C170.117 577.8 169.877 577.676 169.685 577.508C169.501 577.332 169.361 577.108 169.265 576.836C169.177 576.564 169.133 576.236 169.133 575.852V569.12H171.065V575.156C171.065 575.332 171.077 575.484 171.101 575.612C171.125 575.732 171.169 575.832 171.233 575.912C171.297 575.984 171.385 576.036 171.497 576.068C171.617 576.1 171.773 576.116 171.965 576.116H172.433V578H171.437ZM180.434 578C179.882 578 179.414 577.948 179.03 577.844C178.654 577.732 178.338 577.604 178.082 577.46C177.826 577.308 177.606 577.168 177.422 577.04L178.43 575.852C178.798 576.028 179.29 576.116 179.906 576.116H181.418C181.338 575.964 181.258 575.808 181.178 575.648C181.098 575.48 181.006 575.296 180.902 575.096C180.806 574.896 180.686 574.672 180.542 574.424L182.774 572.924C182.838 573.404 182.886 573.916 182.918 574.46C182.958 574.996 182.946 575.56 182.882 576.152C182.826 576.736 182.69 577.352 182.474 578H180.434ZM172.43 578V576.116H173.582C173.606 575.948 173.626 575.776 173.642 575.6C173.658 575.424 173.662 575.236 173.654 575.036C173.654 574.836 173.642 574.62 173.618 574.388L175.898 573.608C175.786 574.168 175.678 574.644 175.574 575.036C175.47 575.428 175.354 575.776 175.226 576.08C175.098 576.384 174.946 576.684 174.77 576.98C174.602 577.276 174.39 577.616 174.134 578H172.43ZM176.15 578C175.55 578 175.042 577.948 174.626 577.844C174.21 577.732 173.878 577.608 173.63 577.472C173.39 577.328 173.222 577.216 173.126 577.136L173.834 575.732C174.034 575.852 174.278 575.948 174.566 576.02C174.862 576.084 175.186 576.116 175.538 576.116H177.002C177.026 575.996 177.046 575.848 177.062 575.672C177.078 575.488 177.086 575.288 177.086 575.072C177.086 574.848 177.074 574.62 177.05 574.388L179.342 573.608C179.222 574.168 179.106 574.644 178.994 575.036C178.89 575.428 178.774 575.776 178.646 576.08C178.526 576.384 178.378 576.684 178.202 576.98C178.026 577.276 177.814 577.616 177.566 578H176.15ZM183.89 578C183.466 578 183.086 577.964 182.75 577.892C182.422 577.82 182.134 577.728 181.886 577.616C181.638 577.496 181.422 577.38 181.238 577.268L181.97 575.84C182.066 575.888 182.17 575.928 182.282 575.96C182.394 575.992 182.51 576.02 182.63 576.044C182.75 576.068 182.878 576.088 183.014 576.104C183.15 576.112 183.29 576.116 183.434 576.116H183.95V578H183.89ZM172.43 576.116H172.55V578H172.43C172.19 578 172.07 577.688 172.07 577.064C172.07 576.432 172.19 576.116 172.43 576.116ZM183.949 578V576.116H184.225C184.953 576.116 185.565 576.1 186.061 576.068C186.557 576.036 186.977 575.988 187.321 575.924C187.665 575.852 187.965 575.764 188.221 575.66C188.477 575.556 188.729 575.432 188.977 575.288C189.033 575.256 189.081 575.228 189.121 575.204C189.161 575.18 189.197 575.16 189.229 575.144C189.269 575.12 189.301 575.104 189.325 575.096C189.029 574.944 188.761 574.816 188.521 574.712C188.281 574.6 188.053 574.512 187.837 574.448C187.629 574.376 187.429 574.324 187.237 574.292C187.053 574.26 186.865 574.244 186.673 574.244C186.425 574.244 186.197 574.312 185.989 574.448C185.781 574.584 185.561 574.82 185.329 575.156L184.093 574.52C184.365 573.952 184.657 573.512 184.969 573.2C185.281 572.888 185.605 572.672 185.941 572.552C186.277 572.424 186.609 572.36 186.937 572.36C187.369 572.36 187.765 572.424 188.125 572.552C188.493 572.68 188.837 572.84 189.157 573.032C189.477 573.224 189.789 573.416 190.093 573.608C190.397 573.792 190.701 573.948 191.005 574.076C191.309 574.204 191.633 574.264 191.977 574.256L191.941 575.888C191.733 575.944 191.477 576.028 191.173 576.14C190.869 576.244 190.517 576.4 190.117 576.608C189.797 576.776 189.461 576.944 189.109 577.112C188.757 577.272 188.353 577.42 187.897 577.556C187.441 577.692 186.905 577.8 186.289 577.88C185.673 577.96 184.945 578 184.105 578H183.949ZM183.949 576.116H184.069V578H183.949C183.709 578 183.589 577.688 183.589 577.064C183.589 576.432 183.709 576.116 183.949 576.116ZM197.067 578L196.731 576.116H200.175C200.535 576.116 200.787 576.08 200.931 576.008C201.083 575.936 201.183 575.856 201.231 575.768L201.735 577.376C201.711 577.528 201.607 577.652 201.423 577.748C201.247 577.836 201.043 577.9 200.811 577.94C200.579 577.98 200.367 578 200.175 578H197.067ZM198.543 573.704L200.019 571.796L202.131 575.6C202.219 575.752 202.307 575.864 202.395 575.936C202.483 576.008 202.583 576.056 202.695 576.08C202.807 576.104 202.943 576.116 203.103 576.116H203.223V578H203.103C202.839 578 202.595 577.988 202.371 577.964C202.147 577.932 201.931 577.872 201.723 577.784C201.523 577.688 201.323 577.548 201.123 577.364C200.923 577.18 200.719 576.928 200.511 576.608L198.543 573.704ZM203.227 578V576.116H204.895C204.927 575.98 204.955 575.796 204.979 575.564C205.003 575.332 205.023 575.1 205.039 574.868C205.055 574.628 205.059 574.428 205.051 574.268L207.307 573.476C207.163 574.06 207.019 574.608 206.875 575.12C206.739 575.624 206.575 576.112 206.383 576.584C206.199 577.048 205.959 577.52 205.663 578H203.227ZM208.147 578C207.595 578 207.127 577.948 206.743 577.844C206.367 577.732 206.051 577.604 205.795 577.46C205.539 577.308 205.319 577.168 205.135 577.04L206.155 575.852C206.267 575.908 206.399 575.956 206.551 575.996C206.703 576.036 206.871 576.068 207.055 576.092C207.239 576.108 207.431 576.116 207.631 576.116H208.147V578ZM203.227 576.116H203.347V578H203.227C202.987 578 202.867 577.688 202.867 577.064C202.867 576.432 202.987 576.116 203.227 576.116ZM204.607 581.228L203.347 579.944L204.535 578.672L205.795 579.944L204.607 581.228ZM206.719 581.228L205.459 579.944L206.659 578.672L207.919 579.944L206.719 581.228ZM208.916 571.556L212.276 568.76L213.548 570.272L210.26 572.996L210.56 572.288C211.472 572.544 212.176 572.94 212.672 573.476C213.176 574.012 213.496 574.664 213.632 575.432C213.776 576.192 213.76 577.048 213.584 578H208.148V576.116H211.928C211.832 575.748 211.656 575.4 211.4 575.072C211.144 574.744 210.808 574.464 210.392 574.232C209.984 573.992 209.492 573.828 208.916 573.74V571.556ZM208.148 576.116H208.268V578H208.148C207.908 578 207.788 577.688 207.788 577.064C207.788 576.432 207.908 576.116 208.148 576.116ZM217.222 578C216.822 578 216.478 577.96 216.19 577.88C215.902 577.8 215.662 577.676 215.47 577.508C215.286 577.332 215.146 577.108 215.05 576.836C214.962 576.564 214.918 576.236 214.918 575.852V569.12H216.85V575.156C216.85 575.332 216.862 575.484 216.886 575.612C216.91 575.732 216.954 575.832 217.018 575.912C217.082 575.984 217.17 576.036 217.282 576.068C217.402 576.1 217.558 576.116 217.75 576.116H218.218V578H217.222ZM214.57 568.28V567.284H214.858C214.834 567.244 214.81 567.188 214.786 567.116C214.77 567.044 214.762 566.964 214.762 566.876C214.762 566.54 214.882 566.272 215.122 566.072C215.362 565.872 215.678 565.772 216.07 565.772C216.238 565.772 216.398 565.792 216.55 565.832C216.702 565.872 216.838 565.924 216.958 565.988L216.586 566.876C216.514 566.844 216.442 566.82 216.37 566.804C216.306 566.788 216.238 566.78 216.166 566.78C216.046 566.78 215.954 566.804 215.89 566.852C215.834 566.9 215.806 566.96 215.806 567.032C215.806 567.096 215.838 567.156 215.902 567.212C215.966 567.26 216.106 567.284 216.322 567.284H217.042V568.28H214.57ZM218.215 578V576.116H220.567C220.503 575.836 220.379 575.524 220.195 575.18C220.011 574.836 219.779 574.488 219.499 574.136L221.227 572.372C221.467 572.828 221.675 573.328 221.851 573.872C222.027 574.416 222.115 575.028 222.115 575.708C222.115 576.38 221.967 577.144 221.671 578H218.215ZM218.215 576.116H218.335V578H218.215C217.975 578 217.855 577.688 217.855 577.064C217.855 576.432 217.975 576.116 218.215 576.116ZM219.379 571.712L218.119 570.44L219.307 569.156L220.567 570.44L219.379 571.712ZM221.491 571.712L220.231 570.44L221.431 569.156L222.691 570.44L221.491 571.712ZM229.029 583.964L229.389 583.532L227.409 583.328L227.685 583.412C227.653 582.684 227.593 582 227.505 581.36C227.417 580.72 227.321 580.132 227.217 579.596C227.121 579.06 227.037 578.576 226.965 578.144C226.901 577.712 226.869 577.336 226.869 577.016C226.869 576.84 226.893 576.624 226.941 576.368C226.989 576.112 227.105 575.824 227.289 575.504C227.481 575.184 227.785 574.84 228.201 574.472C228.465 574.232 228.757 573.976 229.077 573.704C229.397 573.432 229.729 573.2 230.073 573.008C230.425 572.816 230.769 572.72 231.105 572.72C231.345 572.72 231.565 572.808 231.765 572.984C231.965 573.152 232.173 573.436 232.389 573.836C232.613 574.228 232.885 574.756 233.205 575.42C233.253 575.508 233.305 575.596 233.361 575.684C233.417 575.764 233.489 575.836 233.577 575.9C233.665 575.964 233.777 576.016 233.913 576.056C234.057 576.096 234.233 576.116 234.441 576.116H234.513V578H234.381C234.029 578 233.725 577.964 233.469 577.892C233.213 577.82 232.985 577.7 232.785 577.532C232.585 577.364 232.397 577.136 232.221 576.848C232.053 576.56 231.877 576.196 231.693 575.756C231.549 575.412 231.421 575.16 231.309 575C231.205 574.832 231.109 574.724 231.021 574.676C230.941 574.62 230.865 574.592 230.793 574.592C230.753 574.592 230.693 574.608 230.613 574.64C230.541 574.672 230.433 574.736 230.289 574.832C230.145 574.92 229.957 575.064 229.725 575.264C229.445 575.496 229.229 575.708 229.077 575.9C228.933 576.092 228.833 576.276 228.777 576.452C228.721 576.62 228.693 576.796 228.693 576.98C228.693 577.5 228.737 578.008 228.825 578.504C228.921 579.008 229.017 579.528 229.113 580.064C229.209 580.608 229.261 581.196 229.269 581.828C229.277 582.468 229.197 583.18 229.029 583.964ZM231.285 578.192C231.173 578.192 231.025 578.176 230.841 578.144C230.665 578.112 230.473 578.064 230.265 578C230.065 577.944 229.873 577.884 229.689 577.82C229.513 577.748 229.365 577.676 229.245 577.604C229.125 577.516 229.017 577.42 228.921 577.316C228.833 577.212 228.757 577.056 228.693 576.848C228.637 576.632 228.601 576.324 228.585 575.924L228.945 575.348C229.065 575.468 229.241 575.6 229.473 575.744C229.713 575.888 229.985 576.02 230.289 576.14C230.601 576.252 230.917 576.332 231.237 576.38C231.565 576.428 231.877 576.412 232.173 576.332L232.497 577.256C232.465 577.392 232.397 577.532 232.293 577.676C232.197 577.82 232.065 577.94 231.897 578.036C231.729 578.14 231.525 578.192 231.285 578.192ZM234.516 578V576.116H236.628C236.564 575.836 236.44 575.524 236.256 575.18C236.072 574.836 235.84 574.488 235.56 574.136L237.288 572.372C237.528 572.828 237.736 573.328 237.912 573.872C238.088 574.416 238.176 575.028 238.176 575.708C238.184 576.38 238.04 577.144 237.744 578H234.516ZM234.516 576.116H234.636V578H234.516C234.276 578 234.156 577.688 234.156 577.064C234.156 576.432 234.276 576.116 234.516 576.116ZM235.44 571.712L234.18 570.44L235.368 569.156L236.628 570.44L235.44 571.712ZM237.552 571.712L236.292 570.44L237.492 569.156L238.752 570.44L237.552 571.712Z" fill="#D3D6DC"/>
<path d="M126.351 632.76C125.743 632.76 125.187 632.7 124.683 632.58C124.187 632.46 123.755 632.272 123.387 632.016C123.027 631.76 122.747 631.428 122.547 631.02C122.355 630.62 122.259 630.136 122.259 629.568C122.259 629.24 122.303 628.852 122.391 628.404C122.487 627.956 122.635 627.524 122.835 627.108L124.491 627.624C124.395 627.904 124.319 628.164 124.263 628.404C124.215 628.644 124.191 628.88 124.191 629.112C124.191 629.392 124.239 629.644 124.335 629.868C124.431 630.084 124.579 630.268 124.779 630.42C124.979 630.572 125.231 630.684 125.535 630.756C125.839 630.836 126.199 630.876 126.615 630.876C127.191 630.876 127.663 630.84 128.031 630.768C128.399 630.704 128.687 630.616 128.895 630.504C129.103 630.392 129.247 630.272 129.327 630.144C129.407 630.016 129.447 629.892 129.447 629.772C129.447 629.7 129.423 629.636 129.375 629.58C129.327 629.516 129.223 629.436 129.063 629.34C128.903 629.244 128.655 629.116 128.319 628.956L129.099 627.324C129.571 627.62 129.943 627.868 130.215 628.068C130.495 628.268 130.703 628.44 130.839 628.584C130.975 628.728 131.063 628.868 131.103 629.004C131.151 629.132 131.175 629.276 131.175 629.436C131.175 629.7 131.131 629.984 131.043 630.288C130.955 630.592 130.807 630.888 130.599 631.176C130.391 631.472 130.103 631.736 129.735 631.968C129.367 632.208 128.907 632.4 128.355 632.544C127.803 632.688 127.135 632.76 126.351 632.76ZM131.799 630C131.711 630 131.563 629.98 131.355 629.94C131.147 629.9 130.911 629.84 130.647 629.76C130.383 629.68 130.115 629.584 129.843 629.472C129.571 629.352 129.327 629.216 129.111 629.064L129.099 627.324C129.459 627.5 129.775 627.644 130.047 627.756C130.327 627.86 130.567 627.94 130.767 627.996C130.975 628.044 131.147 628.076 131.283 628.092C131.427 628.108 131.543 628.116 131.631 628.116H131.847V630H131.799ZM125.343 635.988L124.083 634.704L125.271 633.432L126.531 634.704L125.343 635.988ZM127.455 635.988L126.195 634.704L127.395 633.432L128.655 634.704L127.455 635.988ZM131.852 630V628.116H133.964C133.9 627.836 133.776 627.524 133.592 627.18C133.408 626.836 133.176 626.488 132.896 626.136L134.624 624.372C134.864 624.828 135.072 625.328 135.248 625.872C135.424 626.416 135.512 627.028 135.512 627.708C135.52 628.38 135.376 629.144 135.08 630H131.852ZM131.852 628.116H131.972V630H131.852C131.612 630 131.492 629.688 131.492 629.064C131.492 628.432 131.612 628.116 131.852 628.116ZM133.832 623.712L132.56 622.44L133.772 621.156L135.032 622.44L133.832 623.712ZM137.507 633.072C137.147 633.072 136.747 632.992 136.307 632.832C135.875 632.672 135.483 632.444 135.131 632.148L135.731 630.936C136.051 631.032 136.319 631.096 136.535 631.128C136.751 631.168 136.955 631.188 137.147 631.188C137.579 631.188 137.959 631.104 138.287 630.936C138.623 630.776 138.883 630.556 139.067 630.276C139.259 629.996 139.355 629.692 139.355 629.364C139.355 629.092 139.311 628.864 139.223 628.68C139.143 628.488 139.035 628.308 138.899 628.14C138.771 627.964 138.631 627.764 138.479 627.54L141.059 628.788C141.059 628.884 141.059 628.98 141.059 629.076C141.059 629.172 141.059 629.268 141.059 629.364C141.059 629.604 141.019 629.884 140.939 630.204C140.867 630.524 140.747 630.848 140.579 631.176C140.411 631.512 140.187 631.824 139.907 632.112C139.635 632.4 139.299 632.632 138.899 632.808C138.507 632.984 138.043 633.072 137.507 633.072ZM142.007 630C141.719 630 141.447 629.976 141.191 629.928C140.943 629.872 140.707 629.788 140.483 629.676C140.267 629.564 140.059 629.42 139.859 629.244C139.667 629.068 139.475 628.856 139.283 628.608L137.723 626.604L139.259 624.72L140.771 627.36C140.883 627.552 140.987 627.704 141.083 627.816C141.179 627.928 141.295 628.008 141.431 628.056C141.575 628.096 141.767 628.116 142.007 628.116H142.127V630H142.007ZM142.129 630V628.116H144.073C144.105 627.98 144.133 627.796 144.157 627.564C144.181 627.332 144.201 627.1 144.217 626.868C144.233 626.628 144.237 626.428 144.229 626.268L146.485 625.476C146.341 626.06 146.197 626.608 146.053 627.12C145.917 627.624 145.753 628.112 145.561 628.584C145.377 629.048 145.137 629.52 144.841 630H142.129ZM147.169 630C146.617 630 146.149 629.948 145.765 629.844C145.381 629.732 145.061 629.604 144.805 629.46C144.557 629.308 144.341 629.168 144.157 629.04L145.153 627.852C145.273 627.908 145.409 627.956 145.561 627.996C145.713 628.036 145.881 628.068 146.065 628.092C146.249 628.108 146.445 628.116 146.653 628.116H147.433V630H147.169ZM142.129 628.116H142.249V630H142.129C141.889 630 141.769 629.688 141.769 629.064C141.769 628.432 141.889 628.116 142.129 628.116ZM144.337 624.78L143.077 623.508L144.265 622.224L145.525 623.508L144.337 624.78ZM146.449 624.78L145.189 623.508L146.389 622.224L147.649 623.508L146.449 624.78ZM152.49 627.552C152.738 627.784 153.014 627.936 153.318 628.008C153.63 628.08 153.962 628.116 154.314 628.116V630C153.85 630 153.398 629.904 152.958 629.712C152.526 629.52 152.174 629.2 151.902 628.752L152.49 627.552ZM148.206 623.556L151.566 620.76L152.838 622.272L149.55 624.996L149.85 624.288C150.762 624.544 151.466 624.94 151.962 625.476C152.466 626.012 152.786 626.664 152.922 627.432C153.066 628.192 153.05 629.048 152.874 630H147.438V628.116H151.218C151.122 627.748 150.946 627.4 150.69 627.072C150.434 626.744 150.098 626.464 149.682 626.232C149.274 625.992 148.782 625.828 148.206 625.74V623.556ZM147.438 628.116H147.558V630H147.438C147.197 630 147.077 629.688 147.077 629.064C147.077 628.432 147.197 628.116 147.438 628.116ZM154.316 630V628.116H155.48V621.12H157.412V630H154.316ZM154.316 628.116H154.436V630H154.316C154.076 630 153.956 629.688 153.956 629.064C153.956 628.432 154.076 628.116 154.316 628.116ZM159.01 628.14C159.274 627.948 159.558 627.732 159.862 627.492C160.166 627.244 160.458 626.988 160.738 626.724C161.026 626.452 161.27 626.184 161.47 625.92C161.678 625.648 161.81 625.388 161.866 625.14C161.938 624.884 161.99 624.612 162.022 624.324C162.054 624.036 162.074 623.736 162.082 623.424C162.09 623.112 162.09 622.792 162.082 622.464C162.082 622.128 162.074 621.792 162.058 621.456L163.99 621.024C164.054 621.752 164.058 622.452 164.002 623.124C163.946 623.796 163.826 624.428 163.642 625.02C163.458 625.604 163.21 626.14 162.898 626.628C162.658 626.844 162.426 627.048 162.202 627.24C161.978 627.424 161.77 627.592 161.578 627.744C161.394 627.888 161.23 628.012 161.086 628.116H163.042C162.914 627.892 162.702 627.64 162.406 627.36C162.118 627.072 161.762 626.768 161.338 626.448C160.922 626.12 160.454 625.784 159.934 625.44C159.422 625.088 158.874 624.736 158.29 624.384L158.734 622.284C159.862 623.004 160.826 623.712 161.626 624.408C162.426 625.104 163.05 625.784 163.498 626.448C163.946 627.104 164.206 627.732 164.278 628.332C164.358 628.924 164.23 629.48 163.894 630H159.382L159.01 628.14ZM165.527 621.12H167.459V630H165.527V621.12ZM172.801 630L172.465 628.116H175.909C176.269 628.116 176.521 628.08 176.665 628.008C176.817 627.936 176.917 627.856 176.965 627.768L177.469 629.376C177.445 629.528 177.341 629.652 177.157 629.748C176.981 629.836 176.777 629.9 176.545 629.94C176.313 629.98 176.101 630 175.909 630H172.801ZM174.277 625.704L175.753 623.796L177.865 627.6C177.953 627.752 178.041 627.864 178.129 627.936C178.217 628.008 178.317 628.056 178.429 628.08C178.541 628.104 178.677 628.116 178.837 628.116H178.957V630H178.837C178.573 630 178.329 629.988 178.105 629.964C177.881 629.932 177.665 629.872 177.457 629.784C177.257 629.688 177.057 629.548 176.857 629.364C176.657 629.18 176.453 628.928 176.245 628.608L174.277 625.704ZM178.961 630V628.116H181.313C181.249 627.836 181.125 627.524 180.941 627.18C180.757 626.836 180.525 626.488 180.245 626.136L181.973 624.372C182.213 624.828 182.421 625.328 182.597 625.872C182.773 626.416 182.861 627.028 182.861 627.708C182.861 628.38 182.713 629.144 182.417 630H178.961ZM178.961 628.116H179.081V630H178.961C178.721 630 178.601 629.688 178.601 629.064C178.601 628.432 178.721 628.116 178.961 628.116ZM180.257 633.228L178.997 631.944L180.185 630.672L181.445 631.944L180.257 633.228ZM182.369 633.228L181.109 631.944L182.309 630.672L183.569 631.944L182.369 633.228ZM184.803 633.072C184.563 633.072 184.303 633.036 184.023 632.964C183.743 632.892 183.463 632.788 183.183 632.652L183.723 631.116C183.859 631.14 183.983 631.156 184.095 631.164C184.215 631.18 184.331 631.188 184.443 631.188C184.875 631.188 185.255 631.104 185.583 630.936C185.919 630.776 186.179 630.556 186.363 630.276C186.555 629.996 186.651 629.692 186.651 629.364C186.651 629.092 186.607 628.864 186.519 628.68C186.431 628.488 186.319 628.308 186.183 628.14C186.055 627.964 185.915 627.764 185.763 627.54L188.151 628.548C188.215 628.684 188.263 628.82 188.295 628.956C188.335 629.092 188.355 629.228 188.355 629.364C188.355 629.604 188.315 629.884 188.235 630.204C188.163 630.524 188.043 630.848 187.875 631.176C187.707 631.512 187.483 631.824 187.203 632.112C186.931 632.4 186.595 632.632 186.195 632.808C185.803 632.984 185.339 633.072 184.803 633.072ZM189.303 630C189.015 630 188.743 629.976 188.487 629.928C188.239 629.872 188.007 629.788 187.791 629.676C187.575 629.564 187.367 629.42 187.167 629.244C186.967 629.068 186.771 628.856 186.579 628.608L185.019 626.604L186.555 624.72L188.211 627.6C188.275 627.712 188.343 627.808 188.415 627.888C188.495 627.96 188.603 628.016 188.739 628.056C188.875 628.096 189.063 628.116 189.303 628.116H189.423V630H189.303ZM189.426 630V628.116H191.094C191.126 627.98 191.154 627.796 191.178 627.564C191.202 627.332 191.222 627.1 191.238 626.868C191.254 626.628 191.258 626.428 191.25 626.268L193.506 625.476C193.362 626.06 193.218 626.608 193.074 627.12C192.938 627.624 192.774 628.112 192.582 628.584C192.398 629.048 192.158 629.52 191.862 630H189.426ZM194.346 630C193.794 630 193.326 629.948 192.942 629.844C192.566 629.732 192.25 629.604 191.994 629.46C191.738 629.308 191.518 629.168 191.334 629.04L192.354 627.852C192.466 627.908 192.598 627.956 192.75 627.996C192.902 628.036 193.07 628.068 193.254 628.092C193.438 628.108 193.63 628.116 193.83 628.116H194.346V630ZM189.426 628.116H189.546V630H189.426C189.186 630 189.066 629.688 189.066 629.064C189.066 628.432 189.186 628.116 189.426 628.116ZM191.838 633.228L190.566 631.944L191.778 630.672L193.038 631.944L191.838 633.228ZM194.348 630V628.116H195.512V621.12H197.444V630H194.348ZM194.348 628.116H194.468V630H194.348C194.108 630 193.988 629.688 193.988 629.064C193.988 628.432 194.108 628.116 194.348 628.116ZM199.101 621.12H201.033V630H199.101V621.12ZM209.663 632.76C208.959 632.76 208.367 632.668 207.887 632.484C207.407 632.3 207.023 632.052 206.735 631.74C206.447 631.436 206.239 631.1 206.111 630.732C205.983 630.364 205.919 630 205.919 629.64C205.919 629.264 205.963 628.86 206.051 628.428C206.147 627.996 206.291 627.528 206.483 627.024L208.079 627.528C207.975 627.856 207.895 628.156 207.839 628.428C207.791 628.692 207.767 628.928 207.767 629.136C207.767 629.52 207.851 629.84 208.019 630.096C208.195 630.36 208.439 630.556 208.751 630.684C209.071 630.812 209.443 630.876 209.867 630.876C210.139 630.876 210.399 630.844 210.647 630.78C210.903 630.716 211.131 630.604 211.331 630.444C211.539 630.292 211.703 630.084 211.823 629.82C211.943 629.556 212.003 629.224 212.003 628.824V621.12H213.935V628.836C213.935 629.652 213.771 630.352 213.443 630.936C213.123 631.52 212.647 631.968 212.015 632.28C211.383 632.6 210.599 632.76 209.663 632.76ZM217.894 630C217.494 630 217.15 629.96 216.862 629.88C216.574 629.8 216.334 629.676 216.142 629.508C215.958 629.332 215.818 629.108 215.722 628.836C215.634 628.564 215.59 628.236 215.59 627.852V621.12H217.522V627.156C217.522 627.332 217.534 627.484 217.558 627.612C217.582 627.732 217.626 627.832 217.69 627.912C217.754 627.984 217.842 628.036 217.954 628.068C218.074 628.1 218.23 628.116 218.422 628.116H218.89V630H217.894ZM226.975 630C226.423 630 225.955 629.948 225.571 629.844C225.195 629.732 224.879 629.604 224.623 629.46C224.367 629.308 224.147 629.168 223.963 629.04L225.031 627.888C225.175 627.952 225.371 628.008 225.619 628.056C225.875 628.096 226.155 628.116 226.459 628.116H227.935C227.839 627.756 227.699 627.408 227.515 627.072C227.339 626.728 227.135 626.408 226.903 626.112L228.631 624.36C228.815 624.696 228.983 625.06 229.135 625.452C229.287 625.836 229.395 626.256 229.459 626.712C229.531 627.16 229.539 627.656 229.483 628.2C229.427 628.744 229.283 629.344 229.051 630H226.975ZM218.887 630V628.116H220.039C220.063 627.948 220.079 627.776 220.087 627.6C220.103 627.424 220.111 627.236 220.111 627.036C220.111 626.836 220.099 626.62 220.075 626.388L222.343 625.608C222.231 626.168 222.123 626.644 222.019 627.036C221.915 627.428 221.799 627.776 221.671 628.08C221.551 628.384 221.403 628.684 221.227 628.98C221.059 629.276 220.847 629.616 220.591 630H218.887ZM222.607 630C222.007 630 221.499 629.948 221.083 629.844C220.667 629.732 220.335 629.608 220.087 629.472C219.847 629.328 219.679 629.212 219.583 629.124L220.291 627.72C220.491 627.848 220.739 627.948 221.035 628.02C221.331 628.084 221.655 628.116 222.007 628.116H223.459C223.483 627.996 223.499 627.848 223.507 627.672C223.523 627.488 223.531 627.288 223.531 627.072C223.531 626.848 223.519 626.62 223.495 626.388L225.787 625.608C225.667 626.168 225.555 626.644 225.451 627.036C225.347 627.428 225.231 627.776 225.103 628.08C224.975 628.384 224.823 628.684 224.647 628.98C224.479 629.276 224.271 629.616 224.023 630H222.607ZM218.887 628.116H219.007V630H218.887C218.647 630 218.527 629.688 218.527 629.064C218.527 628.432 218.647 628.116 218.887 628.116ZM231.514 633.072C231.154 633.072 230.762 633.004 230.338 632.868C229.922 632.732 229.522 632.492 229.138 632.148L229.738 630.936C230.01 631.04 230.266 631.108 230.506 631.14C230.746 631.172 230.962 631.188 231.154 631.188C231.61 631.188 232.002 631.108 232.33 630.948C232.658 630.788 232.91 630.556 233.086 630.252C233.27 629.948 233.362 629.584 233.362 629.16C233.362 628.952 233.31 628.748 233.206 628.548C233.11 628.34 232.942 628.088 232.702 627.792C232.462 627.488 232.138 627.092 231.73 626.604L233.266 624.72C233.69 625.304 234.034 625.844 234.298 626.34C234.562 626.836 234.754 627.304 234.874 627.744C235.002 628.176 235.066 628.604 235.066 629.028C235.066 629.324 235.03 629.652 234.958 630.012C234.886 630.372 234.766 630.728 234.598 631.08C234.438 631.44 234.222 631.768 233.95 632.064C233.678 632.368 233.338 632.612 232.93 632.796C232.53 632.98 232.058 633.072 231.514 633.072ZM236.484 621.12H238.416V630H236.484V621.12ZM246.182 630.264C245.606 630.264 245.102 630.172 244.67 629.988C244.238 629.804 243.902 629.536 243.662 629.184C243.422 628.832 243.302 628.4 243.302 627.888C243.302 627.496 243.382 627.124 243.542 626.772C243.702 626.412 243.906 626.08 244.154 625.776C244.402 625.472 244.662 625.208 244.934 624.984C245.214 624.752 245.47 624.568 245.702 624.432L246.638 625.488C246.302 625.8 246.03 626.08 245.822 626.328C245.622 626.576 245.474 626.804 245.378 627.012C245.282 627.212 245.234 627.412 245.234 627.612C245.234 627.876 245.322 628.072 245.498 628.2C245.682 628.32 245.922 628.38 246.218 628.38C246.578 628.38 246.822 628.304 246.95 628.152C247.078 628 247.142 627.824 247.142 627.624C247.142 627.472 247.098 627.3 247.01 627.108C246.922 626.908 246.77 626.692 246.554 626.46C246.338 626.22 246.046 625.968 245.678 625.704C245.31 625.432 244.846 625.152 244.286 624.864L245.258 622.992C245.874 623.36 246.398 623.72 246.83 624.072C247.27 624.424 247.634 624.768 247.922 625.104C248.218 625.432 248.45 625.748 248.618 626.052C248.786 626.356 248.902 626.644 248.966 626.916C249.038 627.188 249.074 627.444 249.074 627.684C249.074 628.212 248.962 628.668 248.738 629.052C248.522 629.436 248.198 629.736 247.766 629.952C247.342 630.16 246.814 630.264 246.182 630.264ZM245.03 622.476L243.77 621.204L244.958 619.92L246.218 621.204L245.03 622.476ZM247.142 622.476L245.882 621.204L247.082 619.92L248.342 621.204L247.142 622.476ZM250.227 630L249.891 628.116H253.239C253.159 627.932 253.031 627.716 252.855 627.468C252.679 627.212 252.459 626.932 252.195 626.628C251.931 626.324 251.619 626.016 251.259 625.704L252.747 623.784C253.363 624.48 253.855 625.152 254.223 625.8C254.591 626.44 254.827 627.1 254.931 627.78C255.043 628.452 255.007 629.192 254.823 630H250.227ZM258.71 630C258.31 630 257.966 629.96 257.678 629.88C257.39 629.8 257.15 629.676 256.958 629.508C256.774 629.332 256.634 629.108 256.538 628.836C256.45 628.564 256.406 628.236 256.406 627.852V621.12H258.338V627.156C258.338 627.332 258.35 627.484 258.374 627.612C258.398 627.732 258.442 627.832 258.506 627.912C258.57 627.984 258.658 628.036 258.77 628.068C258.89 628.1 259.046 628.116 259.238 628.116H259.706V630H258.71ZM259.703 630V628.116H260.903C260.847 628.004 260.791 627.848 260.735 627.648C260.679 627.448 260.651 627.216 260.651 626.952C260.651 626.408 260.775 625.944 261.023 625.56C261.279 625.168 261.635 624.872 262.091 624.672C262.547 624.464 263.083 624.36 263.699 624.36C264.075 624.36 264.443 624.404 264.803 624.492C265.163 624.572 265.483 624.684 265.763 624.828L264.995 626.496C264.771 626.408 264.551 626.344 264.335 626.304C264.127 626.256 263.915 626.232 263.699 626.232C263.307 626.232 263.023 626.324 262.847 626.508C262.671 626.692 262.583 626.916 262.583 627.18C262.583 627.34 262.631 627.492 262.727 627.636C262.831 627.78 262.995 627.896 263.219 627.984C263.443 628.072 263.739 628.116 264.107 628.116H265.799V630H259.703ZM259.703 628.116H259.823V630H259.703C259.463 630 259.343 629.688 259.343 629.064C259.343 628.432 259.463 628.116 259.703 628.116ZM267.211 621.12H269.143V630H267.211V621.12Z" fill="#D3D6DC"/>
<path d="M36.13 69.3101H44.13C46.89 69.3101 49.13 67.0701 49.13 64.3101C49.13 61.5501 46.89 59.3101 44.13 59.3101H33.13" stroke="white" stroke-width="1.5" stroke-miterlimit="10" stroke-linecap="round" stroke-linejoin="round"/>
<path d="M35.43 61.8099L32.87 59.2499L35.43 56.6899" stroke="white" stroke-width="1.5" stroke-linecap="round" stroke-linejoin="round"/>
<path d="M16.488 28L18.752 24.08C18.2133 24.1813 17.688 24.16 17.176 24.016C16.6693 23.8667 16.2133 23.624 15.808 23.288C15.4027 22.9467 15.08 22.5333 14.84 22.048C14.6 21.5627 14.48 21.0293 14.48 20.448C14.48 19.92 14.5787 19.424 14.776 18.96C14.9787 18.4907 15.256 18.08 15.608 17.728C15.96 17.3707 16.368 17.0933 16.832 16.896C17.3013 16.6933 17.8027 16.592 18.336 16.592C19.0347 16.592 19.6747 16.7653 20.256 17.112C20.8373 17.4587 21.3013 17.9253 21.648 18.512C21.9947 19.0933 22.168 19.7387 22.168 20.448C22.168 20.816 22.1227 21.152 22.032 21.456C21.9467 21.76 21.8107 22.08 21.624 22.416L18.416 28H16.488ZM18.32 22.632C18.7467 22.632 19.1253 22.5307 19.456 22.328C19.7867 22.12 20.0453 21.8507 20.232 21.52C20.424 21.184 20.52 20.824 20.52 20.44C20.52 20.024 20.4187 19.6507 20.216 19.32C20.0133 18.9893 19.744 18.728 19.408 18.536C19.0773 18.344 18.72 18.248 18.336 18.248C17.9093 18.248 17.5307 18.352 17.2 18.56C16.8693 18.768 16.608 19.04 16.416 19.376C16.224 19.7067 16.128 20.0613 16.128 20.44C16.128 20.84 16.224 21.208 16.416 21.544C16.6133 21.8747 16.8773 22.1387 17.208 22.336C17.5387 22.5333 17.9093 22.632 18.32 22.632ZM24.3526 21.752C24.1073 21.752 23.8993 21.6667 23.7286 21.496C23.5633 21.3253 23.4806 21.1173 23.4806 20.872C23.4806 20.632 23.5633 20.4267 23.7286 20.256C23.8993 20.0853 24.1073 20 24.3526 20C24.598 20 24.806 20.0853 24.9766 20.256C25.1473 20.4267 25.2326 20.632 25.2326 20.872C25.2326 21.1173 25.1473 21.3253 24.9766 21.496C24.806 21.6667 24.598 21.752 24.3526 21.752ZM24.3526 28.208C24.1073 28.208 23.8993 28.1227 23.7286 27.952C23.5633 27.7813 23.4806 27.5733 23.4806 27.328C23.4806 27.088 23.5633 26.8827 23.7286 26.712C23.8993 26.5413 24.1073 26.456 24.3526 26.456C24.598 26.456 24.806 26.5413 24.9766 26.712C25.1473 26.8827 25.2326 27.088 25.2326 27.328C25.2326 27.5733 25.1473 27.7813 24.9766 27.952C24.806 28.1227 24.598 28.208 24.3526 28.208ZM31.832 28V25.136H27.04V23.464L31.432 16.8H33.496V23.472H34.52V25.136H33.496V28H31.832ZM28.976 23.464L31.832 23.472L31.816 19.096L28.976 23.464ZM37.6541 28V18.464H36.3181L36.7741 16.8H39.3181V28H37.6541Z" fill="white"/>
<path fill-rule="evenodd" clip-rule="evenodd" d="M326 18H325C324.448 18 324 18.4197 324 18.9375V27.0625C324 27.5803 324.448 28 325 28H326C326.552 28 327 27.5803 327 27.0625V18.9375C327 18.4197 326.552 18 326 18ZM320 20H321C321.552 20 322 20.4298 322 20.96V27.04C322 27.5702 321.552 28 321 28H320C319.448 28 319 27.5702 319 27.04V20.96C319 20.4298 319.448 20 320 20ZM316 22H315C314.448 22 314 22.4477 314 23V27C314 27.5523 314.448 28 315 28H316C316.552 28 317 27.5523 317 27V23C317 22.4477 316.552 22 316 22ZM311 24H310C309.448 24 309 24.4477 309 25V27C309 27.5523 309.448 28 310 28H311C311.552 28 312 27.5523 312 27V25C312 24.4477 311.552 24 311 24Z" fill="white"/>
<path fill-rule="evenodd" clip-rule="evenodd" d="M339.637 19.2773C341.852 19.2774 343.984 20.1289 345.59 21.6557C345.711 21.7735 345.904 21.772 346.023 21.6523L347.179 20.4857C347.239 20.4249 347.273 20.3427 347.272 20.2571C347.272 20.1715 347.237 20.0897 347.176 20.0297C342.961 15.9901 336.311 15.9901 332.096 20.0297C332.035 20.0896 332.001 20.1715 332 20.257C331.999 20.3426 332.033 20.4249 332.093 20.4857L333.25 21.6523C333.369 21.7722 333.562 21.7737 333.683 21.6557C335.289 20.1288 337.42 19.2773 339.637 19.2773ZM339.637 23.0729C340.854 23.0728 342.028 23.5254 342.931 24.3426C343.053 24.4585 343.245 24.456 343.364 24.3369L344.519 23.1702C344.579 23.109 344.613 23.026 344.612 22.9398C344.611 22.8535 344.576 22.7712 344.514 22.7112C341.766 20.1548 337.51 20.1548 334.762 22.7112C334.699 22.7712 334.664 22.8535 334.663 22.9398C334.662 23.0261 334.696 23.1091 334.757 23.1702L335.912 24.3369C336.031 24.456 336.223 24.4585 336.345 24.3426C337.247 23.5259 338.42 23.0734 339.637 23.0729ZM341.95 25.6267C341.951 25.7132 341.917 25.7966 341.856 25.8572L339.858 27.8729C339.8 27.9321 339.72 27.9655 339.637 27.9655C339.553 27.9655 339.473 27.9321 339.415 27.8729L337.417 25.8572C337.356 25.7966 337.322 25.7131 337.323 25.6266C337.325 25.5401 337.363 25.4582 337.427 25.4002C338.703 24.3213 340.571 24.3213 341.846 25.4002C341.91 25.4583 341.948 25.5402 341.95 25.6267Z" fill="white"/>
<path opacity="0.35" d="M353.5 18.6667C353.5 17.4701 354.47 16.5 355.667 16.5H375.333C376.53 16.5 377.5 17.47 377.5 18.6667V26.3333C377.5 27.53 376.53 28.5 375.333 28.5H355.667C354.47 28.5 353.5 27.53 353.5 26.3333V18.6667Z" stroke="white"/>
<path opacity="0.4" d="M378.65 21V25C379.455 24.6612 379.978 23.8731 379.978 23C379.978 22.1269 379.455 21.3388 378.65 21Z" fill="white"/>
<path d="M355.3 19.6666C355.3 18.9302 355.897 18.3333 356.633 18.3333H374.167C374.903 18.3333 375.5 18.9302 375.5 19.6666V25.3299C375.5 26.0663 374.903 26.6633 374.167 26.6633H356.633C355.897 26.6633 355.3 26.0663 355.3 25.3299V19.6666Z" fill="white"/>
</g>
<defs>
<clipPath id="clip0_17_379">
<rect width="393" height="852" fill="white"/>
</clipPath>
</defs>
</svg>
